<svg xmlns="http://www.w3.org/2000/svg" width="787" height="1302" fill="none" viewBox="0 0 787 1302"><g clip-path="url(#clip0)"><path fill="#DADAE5" d="M351.1 421C467.4 421 561.6 326.8 561.6 210.5C561.6 94.2 467.3 0 351.1 0C234.9 0 140.6 94.2 140.6 210.5C140.6 326.8 234.8 421 351.1 421Z"/><path fill="#1A0029" d="M351.1 416C457.4 416 543.6 329.8 543.6 223.5C543.6 117.2 457.4 31 351.1 31C244.8 31 158.6 117.2 158.6 223.5C158.6 329.8 244.7 416 351.1 416Z"/><path fill="#3B163A" d="M359.1 415.6C456.6 415.6 535.6 335.2 535.6 236.1C535.6 137 456.6 56.6 359.1 56.6C261.6 56.6 182.6 137 182.6 236.1C182.6 335.2 261.6 415.6 359.1 415.6Z"/><path fill="#A56D8A" d="M359.6 402.6C428.1 402.6 483.6 343.5 483.6 270.6C483.6 197.7 428.1 138.6 359.6 138.6C291.1 138.6 235.6 197.7 235.6 270.6C235.6 343.5 291.1 402.6 359.6 402.6Z"/><path fill="#1A0029" d="M301.1 288C305.8 288 309.6 284.2 309.6 279.5C309.6 274.8 305.8 271 301.1 271C296.4 271 292.6 274.8 292.6 279.5C292.6 284.2 296.4 288 301.1 288Z"/><path fill="#422C4F" d="M302.6 287C306.5 287 309.6 283.9 309.6 280C309.6 276.1 306.5 273 302.6 273C298.7 273 295.6 276.1 295.6 280C295.6 283.9 298.7 287 302.6 287Z"/><path fill="#1A0029" d="M412.7 290C417.1 290 420.6 286.4 420.6 282C420.6 277.6 417.1 274 412.7 274C408.3 274 404.8 277.6 404.8 282C404.8 286.4 408.3 290 412.7 290Z"/><path fill="#422C4F" d="M411.6 290C415.5 290 418.6 286.9 418.6 283C418.6 279.1 415.5 276 411.6 276C407.7 276 404.6 279.1 404.6 283C404.6 286.9 407.7 290 411.6 290Z"/><path fill="#1A0029" d="M395 255.1L399.6 249.4L404.6 245.9L408.8 243L413.7 242L420.8 243.1L425.9 246.9L429.2 251.7L430.7 253.8L424.9 252.5L420.2 250.9L416.6 250.6L410.5 251.1L405.7 251.2L395 255.1Z"/><path fill="#1A0029" d="M276.6 255.5L281.2 249.9L286.2 246.3L290.4 243.4L295.3 242.4L302.4 243.5L307.5 247.3L310.9 252.1L312.3 254.2L306.5 252.9L301.8 251.3L298.2 251L292.1 251.5L287.4 251.7L276.6 255.5Z"/><path fill="#824D72" d="M353.7 289.8L338.6 329L359.1 334.5L371.6 327L353.7 289.8Z"/><path fill="#663466" d="M340.6 327.6H368.1L354.3 340.8L340.6 327.6Z"/><path fill="#DBDAE5" d="M377.3 346C372.6 358.6 364.2 367 354.5 367C344.9 367 336.4 358.6 331.7 346H337.8C341.8 353.8 347.8 358.8 354.5 358.8C361.2 358.8 367.2 353.8 371.2 346H377.3Z"/><path fill="#995574" d="M424.1 329.6C433.2 329.6 440.6 325.6 440.6 320.6C440.6 315.6 433.2 311.6 424.1 311.6C415 311.6 407.6 315.6 407.6 320.6C407.6 325.6 414.9 329.6 424.1 329.6Z"/><path fill="#995574" d="M294.6 329.6C304.5 329.6 312.6 325.6 312.6 320.6C312.6 315.6 304.5 311.6 294.6 311.6C284.7 311.6 276.6 315.6 276.6 320.6C276.6 325.6 284.6 329.6 294.6 329.6Z"/><path fill="#3F3249" d="M231.6 245.9L235.4 226.2L240.2 211.5L246.5 197.5H227.2L219.6 185.1L215.6 169V149.8V132L225.5 114.8L237.4 105.8L253.3 101.8H265.1L280 104.8L301.8 113.6L316.7 117.9L339.5 122.1L355.4 127.9H376.2H409.9H434.4L455.5 133.6L461.5 141L465.5 154.1C465.5 154.1 463.5 165.9 465.5 167.5C467.5 169.1 474.4 188.2 474.4 188.2L484.3 211.3L490.2 227.4L490.6 239.2V252L485.3 276.5L480.3 285L465.6 252.3L455.5 227.4L442.6 210.2L433.7 200.1L399 201.1C399 201.1 391.1 197.1 381.2 197.1C371.3 197.1 358.4 196.1 349.5 197.1C340.6 198.1 308.9 199.7 308.9 199.7C308.9 199.7 299 200.8 295 200.5C291 200.2 276.2 201.3 276.2 201.3C276.2 201.3 273.2 204.2 270.2 207.3C267.2 210.4 260.3 216.3 260.3 216.3C260.3 216.3 251.4 220.3 249.4 223.3C247.4 226.3 243.5 230 243.9 233.2C244.4 236.4 243.9 239.1 243.9 239.1V251.9L240.9 264.5L242.4 276.9C242.4 276.9 244.4 280.3 242.4 287C240.4 293.7 240.4 293.7 240.4 293.7L235.2 302C235.2 302 231.8 286.3 232.1 287C232.4 287.7 230.4 276.9 230.4 276.9C230.4 276.9 230.4 260.4 230.4 257.4C230.5 254.4 231.6 245.9 231.6 245.9Z"/><path fill="#3F3249" d="M272.2 202.2L249.6 238.5L244.2 257.5L239.8 282L237.5 265.5L240.4 252.9L241.5 230.2L251.6 216.6L272.2 202.2Z"/><path fill="#3F3249" d="M258.9 223.5L276.6 206.3L293.7 198.5L275.2 199.2L258.9 218.5"/><path fill="#3F3249" d="M406.6 198L429.9 201.7L449.8 219.2L455.1 227.7L432.5 197.6L406.6 198Z"/><path fill="url(#paint0_linear)" d="M260.4 87.9L250.4 98.6L229 121.4L210.9 140.7L202 162.1L190.9 184.3L178.7 224.4L181.7 260L193.5 287.2L209.4 306.3L233.5 321.8L264.3 328L286.4 324.9L319.3 313L339.3 298L350.3 275.2L357.9 249.5L360.8 235.5L363.5 193.7L365.5 167.4L366.3 152L371.7 132.8L379 121.4L396.5 105.6L420.3 95H435.8L460 87.9L443.9 75.7L414.4 65.1L356.8 56L311.3 63.2L290.8 73L260.4 87.9Z"/><path fill="#AAAAC1" d="M140.6 259.5H132.4L123.2 274.6L114.1 287V294V453.5L120.2 441.3L127.3 433.6L140.6 425L147.8 420L158.6 419.6L170.7 406.6H182.6H193.7H215.6H245.8H264.9L199.4 360.5L171.6 324.6L140.6 259.5Z"/><path fill="#AAAAC1" d="M424.1 410.2H471.7H488.4H520.6H538.2H568.1H583.4L593.6 411.8V290L585.1 283.7L578.3 272L566.4 264.7L558.1 255.5L542.2 289L529.3 324.7L503.4 351.7L479.5 375.2L445.6 399.2L424.1 410.2Z"/><path fill="#fff" d="M185.8 404L204.3 418.4L218.8 423.5L245.2 427.6L312.8 432.7H341.8H385.1L433.9 427.6L478 418.4L493.8 413.4L520.3 400L443.8 398.5L423.8 406.7L388.7 415.6L343.8 418.1L312.8 414.3L291.3 408.8L268.1 404H185.8Z"/><path fill="#5F5F77" d="M178.5 404V418.4L185.4 427.6L199.1 432.7L220.5 440.9L255.2 446L297 450.9H349H382.9L436.5 445L464.6 440.9L486.5 432.7L513 427.4L520.8 415.6L523.6 398.5L513 400L486.5 413.4L455.9 421.5L436.5 425.6L407.5 429.6L373.2 432.7H334.5H305.5L272.5 430.2L237.9 427.6L207.2 418.4L178.5 404Z"/><path fill="#DADAE5" d="M174.4 402.6L166.7 405.2L154.5 418.2L143.7 418.6L128.6 428.8L124.6 449.6L129.7 482L136.6 498.3L145 522.8L154.6 546.3L161.4 569.8L162.4 587.2L161.4 610.7V633.2L163.4 653.6L164.4 671V682.2V691.4L174.5 697.5V702.6V710.8L178.6 720L185.5 725.1L193 731.2L199.1 736.3H211.5H225.6L233.4 741.4L243 746.5V752.6L231.5 758.7H225.6H220.5V763.8L231.5 768.9L243 773L250.8 778.1H254.8L260.8 786.3H268.1L272.5 792.4H278.7V802.6L268.1 806.7L250.8 801.6L237.9 798.5L231.5 794.4L247.1 806.7H254.8C254.8 806.7 258.2 807.7 260.8 810.8C263.4 813.9 265.6 814.9 268.1 814.9C270.6 814.9 282.8 814.9 282.8 814.9H288.5L305.5 819H334.5H367.5L390.9 822.1H408.8H426.8L451 816L467.7 806.8L479.5 800.7L499.3 789.5L508.5 780.3L513 766L516.2 748.6L519.5 720L526.8 651.6V621L531.4 583.2V535.2L539.4 516.8L548.3 497.4L557.4 481.1C557.4 481.1 555.3 471.9 557.4 466.8C559.5 461.7 561.5 452.3 561.5 452.3V440.2V431.5C552.3 423.9 552.3 423.9 552.3 423.9L543.1 414.8L525.7 408.6H519.4L482.2 431.5L455.7 440.3L426.4 444.4L395 447.4L363.8 449.7H327.4H298.3L260.6 445.9L233.2 442.2L204 431.5L181.1 426.4L174.4 402.6Z"/><path fill="#AAAAC1" d="M393.6 526.4H305.6C266.9 526.4 235.6 559.8 235.6 600.9V613.1C235.6 654.2 266.9 687.6 305.6 687.6H393.6C432.3 687.6 463.6 654.2 463.6 613.1V600.9C463.6 559.8 432.2 526.4 393.6 526.4ZM438.7 659.7C426 673.2 408.5 681.5 389.2 681.5H311.9C273.2 681.5 241.9 648.1 241.9 607C241.9 586.4 249.7 567.8 262.4 554.3C275.1 540.8 292.6 532.5 311.9 532.5H389.2C427.9 532.5 459.2 565.9 459.2 607C459.2 627.6 451.3 646.2 438.7 659.7Z"/><path fill="#AAAAC1" d="M368.1 573.2H276.6V589.5H368.1V573.2Z"/><path fill="#AAAAC1" d="M368.1 631.4H276.6V647.7H368.1V631.4Z"/><path fill="#AAAAC1" d="M395 607C406.046 607 415 598.046 415 587C415 575.954 406.046 567 395 567C383.954 567 375 575.954 375 587C375 598.046 383.954 607 395 607Z"/><path fill="#AAAAC1" d="M395 658.4C405.383 658.4 413.8 649.983 413.8 639.6C413.8 629.217 405.383 620.8 395 620.8C384.617 620.8 376.2 629.217 376.2 639.6C376.2 649.983 384.617 658.4 395 658.4Z"/><path fill="#fff" d="M124.6 432.7L107.5 455.2L83.7 485.9L63.2 513.5L44.8 545.3V558.1L52.3 569.7L57.8 578.2L72.9 586.7L84.7 604.8L107.5 619.1L118.1 630.2L138.9 651.4L146.1 658.2L151.8 664.1H165.2H170.8L168 608.6V566.2L154.9 527.5L134.5 475L124.6 432.7Z"/><path fill="#DADAE5" d="M49.1 559.9L33.9 574.4L20.6 595.3L13.4 620.9L5.29999 638V655.2V679.8L14.5 699L27.2 708.7L49.1 725.8L70.6 740.8L88 757.9L101.6 765.4L121.6 778.2L137.8 786.8L148.2 795.3L155.8 803.9L170.7 820.7L183 826.4L186.7 833.9L195.2 840.3L204.4 851H212.8V844.6V839.2L201.3 820.7L199.3 814.6L219.7 837.1L225.9 843.5L239.1 851H245.3V843.5L239.1 837.1L232.8 832.8L219.7 815.7L220.8 809.3L239.1 820.7L252 829.6L262.1 833.9L269.4 830.7V820.7L257.9 808.9L252 809.3L244.2 804.6L239.1 797.1L232.8 785.7L247.9 799.3L256.1 801.8L265.2 804.6L275.9 800.3V789.6L265.2 783.2H257.9L247.9 774.6L234.7 770.8L228.6 765L217.6 759.7V754.3H228.6L234.7 750.9L240.1 741.5L222.8 730.8H208.6H196.2L190.1 725.4L175.6 713.6L171.5 704L161.1 691.5L147.2 679.8L140.6 668L143.1 655.2L119.1 629.5L101.3 609.7L85.9 595.3L75.7 577L63.5 568.5L49.1 559.9Z"/><path fill="#fff" d="M0 689.7L8.2 672.3L30.6 655.9L49 647.8H67.4H90.9H104.5L119.5 655.9L129.7 666.6L140.7 672.3V679.4V689.7H134.8L132.8 679.4L124.6 672.3L99.1 668.7L83.7 666.6L65.4 668.7L44.9 678.4L34.7 685.5L24.5 695.8L17.4 700.9H12.3H7.1L0 689.7Z"/><path fill="#fff" d="M78.1 776.8L83.2 757.4V743.1L93.4 731.9L105.7 717.6L121 711.5L131.3 702.3H141.5H155L160.7 700.9L170.8 712.1V720.3L160.3 719.6L149.5 721.6L137 727.7L130.1 738.8L120.9 748.2L115.8 754.3C115.8 754.3 107.2 759.4 110.5 762.5C113.8 765.6 111.3 762.5 110.5 771.7C109.7 780.9 109.7 780.9 109.7 780.9L100.8 784H95.4H86.2L78.1 776.8Z"/><path fill="#fff" d="M513 400L550.3 430.4L545.7 465.9V480.3L528.2 511.7L517.1 534.8V583.1L672.9 581.4L653.8 415L513 400Z"/><path fill="#AAAAC1" d="M663.4 551.4H712.3L737.9 546.2L764.6 526L780.2 519.9V485.6V459.5V426.3V409.2L773.5 372.8V350L767.9 321.5L762.3 314.1L721.7 321.1L675.6 334.3V350C675.6 350 674.5 362.4 675.6 365.5C676.7 368.6 677.8 381.8 677.8 381.8L676.7 401.2C676.7 401.2 676.7 412.4 675.6 414.4C674.5 416.5 674.5 416.5 674.5 416.5L667.8 426.2C667.8 426.2 670 435.6 663.4 434.7C656.7 433.9 647.4 434.7 647.4 434.7L663.4 551.4Z"/><path fill="#fff" d="M680.9 334.5L674.8 327.1L670.7 319.6L660.5 310.6V299.8V293.9H670.7H675.8L685 299.8V283.8L679.9 268.9L672.8 250.2V236.2V229.5L679.9 220.5L685 229.5L691.1 243.2L695.2 254.4L701.3 268.8V243.1V229.4V220.4V211C701.3 211 702.3 212.1 706.4 211C710.5 209.9 716.9 211 716.9 211V229.4V242.7L721.7 254.4V259V266.3L728.8 250.2V235.8V220.5V210.5H738L747.2 216L751.3 236.2V254.4L747.2 269.9L755.4 266.7L763.6 250.2L770.7 249.8L777.8 254.5V270L770.7 284.9C770.7 284.9 769.7 296 769.7 299.8C769.7 303.7 767.7 310 767.7 310L761.6 319.6L681.9 341.2L680.9 334.5Z"/><path fill="#fff" d="M684.2 378.8L677.1 383.9L673 391.9L684.2 401.1L690.3 405.2C690.3 405.2 693.4 410.4 698.5 411.4C703.6 412.4 719.2 418.2 719.2 418.2C719.2 418.2 728.1 417.7 731.2 418.6C734.3 419.5 744.5 418.6 744.5 418.6H755.7L778 412.4V405.2L785.4 398.9V387.9V378.7H778C778 378.7 773.1 376.7 770 378.7C766.9 380.7 765.9 380.7 760.8 382.8C755.7 384.8 750.6 385.9 750.6 385.9L742.4 391.9L729.1 387.9C729.1 387.9 719.5 387.9 719.2 387.9C718.9 387.9 710.7 386.9 710.7 386.9H702.5L692.3 384.9L684.2 378.8Z"/><path fill="#AAAAC1" d="M603.8 583.1H526.4L516.7 734.6L512.6 747.9L508.6 755V784V795.9H521.9H541.6L564 792.8L573 784C573 784 581.9 774.5 585.7 774.5C589.5 774.5 597.1 763.2 597.1 763.2L603.8 583.1Z"/><path fill="#fff" d="M681.4 421L674.3 429V437.5C674.3 437.5 671.2 445.4 674.3 447.2C677.4 449 679.4 440.4 681.4 449.8C683.4 459.2 685.5 470.4 685.5 470.4C685.5 470.4 683.5 470.4 685.5 475.5C687.5 480.6 700.8 492.9 700.8 492.9L712 500L730.4 508.2L746.7 513.3H762H770.2H779.2L786.6 509.2V500V492.9L772.3 488.4C772.3 488.4 765.2 490 761.1 488.4C757 486.8 747.8 488.4 747.8 488.4L740.7 483.7L730.5 479.6L720.6 475.5L708 467.1L701.9 454L695.8 447.1L685.5 429L681.4 421Z"/><path fill="#fff" d="M275.9 812.8L340.6 816.9L408.7 820L450.9 813.9L508.5 778.1L517.1 752.9L520.3 895.9L527.7 990.9L521.8 1083.8L517.1 1161.5H389L358.4 900L343 899L316.5 1152.3L196 1156.4L188.8 1066.5L182.7 980.7L183 825.5L204.4 848.9H212.8V837.7L193.9 813.2L239.1 848.9H245.3L250.1 839.8L239.1 835.7L227.8 813.3L262.1 832.6L269.4 820L275.9 812.8Z"/><path fill="#5F5F77" d="M363.4 945.3L376 925.9L394.9 915.7L425.7 899.3L463.5 886.1L491 876.9H517H527.6L539 889.1V902.4L527.6 911.1H521.7H512.5L492.1 905.5L468.6 915.7L451.2 921.8L430.8 925.9L420.6 934.1L413.7 945.3L402.2 949.4L394.9 954.5L382.8 964.7L376 970.8L368 975.9H363.4L355.2 959.6L363.4 945.3Z"/><path fill="#5F5F77" d="M375 1036.9L393.9 1022.6L408.2 1008.3L421.9 1001.2L443 996.1H458.3H480.8H504.3L524.1 1001.2L534.7 1005.3V1016.5V1025.7L524.1 1031.8L505.3 1036.9C505.3 1036.9 515.5 1034.9 501.2 1031.8C486.9 1028.7 475.7 1026.7 475.7 1026.7L454.9 1024.7C454.9 1024.7 448.1 1024.7 445 1024.7C441.9 1024.7 426.6 1029.8 426.6 1029.8L413.3 1031.8C413.3 1031.8 397 1037.9 394.9 1041C392.9 1044.1 383 1049.2 383 1049.2H375V1036.9Z"/><path fill="#5F5F77" d="M371.8 1107.9L390.7 1088.5L417.5 1078.3L436.6 1070.1H467.2C467.2 1070.1 485.6 1068.1 491.7 1070.1C497.8 1072.1 517 1076.2 520.7 1077.2C524.4 1078.2 537.7 1088.5 537.7 1088.5L531.4 1107.8H516.3L483.6 1102.7C483.6 1102.7 475.4 1099.6 467.3 1099.6C459.1 1099.6 457.4 1099.6 451.6 1099.6C445.8 1099.6 442.8 1100.6 436.6 1101.6C430.5 1102.6 429.5 1108.7 426.4 1107.7C423.3 1106.7 425.9 1101.6 417.5 1107.7C409 1113.8 398.7 1118.9 398.7 1118.9H385.6L378.7 1123L371.8 1107.9Z"/><path fill="#5F5F77" d="M179.6 885.8H170.8L163.9 901.1L170.8 908.2L179.6 914.4H191.9H206.8L281.8 946L309.3 967.5L322.3 977.7L335.9 984.8L343 978.7V961.3L322.3 945L301.2 924.6L258.3 905.2L235.6 896L201.1 885.8H184.8H179.6Z"/><path fill="#5F5F77" d="M172.1 1005.5L194.6 997.3C194.6 997.3 213 1000.4 219.1 997.3C225.2 994.2 232.1 997.3 232.1 997.3L272.4 1000.7L305.9 1014.7L333.5 1037.2L339.6 1050.5L329.4 1057.6H318.9L307 1050.5L280.4 1036.2L255.9 1031.1H238.5C238.5 1031.1 224.3 1032.1 218.1 1032.1C212 1032.1 209.1 1032.1 203.4 1032.1C197.7 1032.1 185.4 1032.1 185.4 1032.1L172.1 1031.1L167.4 1018.8L172.1 1005.5Z"/><path fill="#5F5F77" d="M177.2 1087.9L207.4 1082.8L236.2 1077.8H249.7L285.4 1087.9H302.8L317.1 1100.2L327.3 1111.4L335.5 1121.6L330.4 1131.8L322.9 1136.9L303.8 1125.7L277.1 1115.5L261.9 1114.5L236.1 1107.4H218L207.4 1113.5C207.4 1113.5 198.6 1113.5 195.6 1113.5C192.6 1113.5 185.4 1113.5 185.4 1113.5H177.2L171.4 1104.9L177.2 1087.9Z"/><path fill="#5F5F77" d="M268 814.9L305.4 819L359.5 822.1L413.7 819.3L450.8 813.9L483.4 798.3L508.3 778.2L516.9 753V784V795.9V811.2L503.2 817.3L483.4 822.1L454.9 835.7C454.9 835.7 438.9 832.6 434.8 835.7C430.7 838.8 414.8 840.8 414.8 840.8C414.8 840.8 390.9 837.7 387.9 840.8C384.8 843.9 359.5 840.8 359.5 840.8L331.6 842.2H312.5H288.9L269.3 831.6V820L268 814.9Z"/><path fill="#9D9D9D" d="M262.1 832.6L232.2 822L227.8 813.3L262.1 832.6Z"/><path fill="#BABACC" d="M315.5 1152.3H197V1166.6H315.5V1152.3Z"/><path fill="#BABACC" d="M389 1161.5L390 1164L392.8 1171.2H517.1V1161.5H389Z"/><path fill="#AAAAC1" d="M209.3 1166.6V1189.8V1218.4L192.8 1230L170.9 1243.7L157.9 1252.2V1265.9V1282.9L167.5 1290.3L189.8 1298.7H209.3L229.8 1301.9H246.5L269.1 1297.7L284.4 1293.4L294.4 1288.1L304.4 1282.9L309.3 1271.2V1246.9V1211V1180.3L305.4 1166.6H209.3Z"/><path fill="#AAAAC1" d="M503.5 1171.2V1193.6V1221.2L520.4 1232.4L542.9 1245.7L556.2 1253.9V1267.2V1283.5L546.4 1290.6L523.5 1298.8H503.5L482.5 1301.9H465.3L442.2 1297.8L426.4 1293.7L416.2 1288.6L406 1283.5L400.9 1272.3V1248.8V1214.1V1184.4L405 1171.2H503.5Z"/><path fill="#fff" d="M191.1 725L137.8 793.4L157.9 810.7L174.7 827.5L188.5 833.3L192.6 840.9L202.2 847.3L212.5 858.1H221.8V846.3L200.7 820.4L216.1 830.7L229.6 844.1L236.5 850.6L251.3 858.1H258.3V850.6L244.2 839.8L233.9 827.5L230.8 816L251.3 827.5L265.8 836.6L277.1 840.9L285.3 837.6V827.5L272.5 815.7L260.2 811.4L251.3 803.7L244.2 792.3L270.4 808.5L280.6 811.4L292.6 807L288.7 796.2L275.6 789.8L261.2 781.1L246.4 777.2L235.1 766.4L215.2 756.7L239.6 760.6L249.5 752.3L252.5 747.7L236.2 736.9H217.2H203.3L191.1 725Z"/></g><defs><linearGradient id="paint0_linear" x1="271.488" x2="564.186" y1="159.516" y2="330.478" gradientUnits="userSpaceOnUse"><stop stop-color="#fff" stop-opacity=".28"/><stop offset="1" stop-opacity="0"/></linearGradient><clipPath id="clip0"><rect width="786.6" height="1301.9" fill="#fff"/></clipPath></defs></svg>