<svg viewBox="0 0 883.9091186523438 400" xmlns="http://www.w3.org/2000/svg"><g><g><g><g><g><line x1="50" y1="378" x2="45" y2="378" style="visibility: inherit;" fill="rgb(0, 0, 0)" stroke="rgb(204, 204, 204)" stroke-width="1px"></line><line x1="50" y1="336" x2="45" y2="336" style="visibility: inherit;" fill="rgb(0, 0, 0)" stroke="rgb(204, 204, 204)" stroke-width="1px"></line><line x1="50" y1="293.99999999999994" x2="45" y2="293.99999999999994" style="visibility: inherit;" fill="rgb(0, 0, 0)" stroke="rgb(204, 204, 204)" stroke-width="1px"></line><line x1="50" y1="251.99999999999994" x2="45" y2="251.99999999999994" style="visibility: inherit;" fill="rgb(0, 0, 0)" stroke="rgb(204, 204, 204)" stroke-width="1px"></line><line x1="50" y1="209.99999999999991" x2="45" y2="209.99999999999991" style="visibility: inherit;" fill="rgb(0, 0, 0)" stroke="rgb(204, 204, 204)" stroke-width="1px"></line><line x1="50" y1="168.0000000000001" x2="45" y2="168.0000000000001" style="visibility: inherit;" fill="rgb(0, 0, 0)" stroke="rgb(204, 204, 204)" stroke-width="1px"></line><line x1="50" y1="126.0000000000001" x2="45" y2="126.0000000000001" style="visibility: inherit;" fill="rgb(0, 0, 0)" stroke="rgb(204, 204, 204)" stroke-width="1px"></line><line x1="50" y1="84.00000000000004" x2="45" y2="84.00000000000004" style="visibility: inherit;" fill="rgb(0, 0, 0)" stroke="rgb(204, 204, 204)" stroke-width="1px"></line><line x1="50" y1="42.00000000000002" x2="45" y2="42.00000000000002" style="visibility: inherit;" fill="rgb(0, 0, 0)" stroke="rgb(204, 204, 204)" stroke-width="1px"></line><line x1="50" y1="0" x2="45" y2="0" style="visibility: inherit;" fill="rgb(0, 0, 0)" stroke="rgb(204, 204, 204)" stroke-width="1px"></line></g><g transform="translate(40, 0)"><text x="0" y="378" dx="0em" dy="0.3em" style="text-anchor: end; visibility: hidden; font-family: Roboto, sans-serif; font-size: 12px; font-weight: 200;" fill="rgb(50, 49, 63)" stroke="none" stroke-width="1px">0.84</text><text x="0" y="336" dx="0em" dy="0.3em" style="text-anchor: end; visibility: inherit; font-family: Roboto, sans-serif; font-size: 12px; font-weight: 200;" fill="rgb(50, 49, 63)" stroke="none" stroke-width="1px">0.86</text><text x="0" y="293.99999999999994" dx="0em" dy="0.3em" style="text-anchor: end; visibility: inherit; font-family: Roboto, sans-serif; font-size: 12px; font-weight: 200;" fill="rgb(50, 49, 63)" stroke="none" stroke-width="1px">0.88</text><text x="0" y="251.99999999999994" dx="0em" dy="0.3em" style="text-anchor: end; visibility: inherit; font-family: Roboto, sans-serif; font-size: 12px; font-weight: 200;" fill="rgb(50, 49, 63)" stroke="none" stroke-width="1px">0.9</text><text x="0" y="209.99999999999991" dx="0em" dy="0.3em" style="text-anchor: end; visibility: inherit; font-family: Roboto, sans-serif; font-size: 12px; font-weight: 200;" fill="rgb(50, 49, 63)" stroke="none" stroke-width="1px">0.92</text><text x="0" y="168.0000000000001" dx="0em" dy="0.3em" style="text-anchor: end; visibility: inherit; font-family: Roboto, sans-serif; font-size: 12px; font-weight: 200;" fill="rgb(50, 49, 63)" stroke="none" stroke-width="1px">0.94</text><text x="0" y="126.0000000000001" dx="0em" dy="0.3em" style="text-anchor: end; visibility: inherit; font-family: Roboto, sans-serif; font-size: 12px; font-weight: 200;" fill="rgb(50, 49, 63)" stroke="none" stroke-width="1px">0.96</text><text x="0" y="84.00000000000004" dx="0em" dy="0.3em" style="text-anchor: end; visibility: inherit; font-family: Roboto, sans-serif; font-size: 12px; font-weight: 200;" fill="rgb(50, 49, 63)" stroke="none" stroke-width="1px">0.98</text><text x="0" y="42.00000000000002" dx="0em" dy="0.3em" style="text-anchor: end; visibility: inherit; font-family: Roboto, sans-serif; font-size: 12px; font-weight: 200;" fill="rgb(50, 49, 63)" stroke="none" stroke-width="1px">1</text><text x="0" y="0" dx="0em" dy="0.3em" style="text-anchor: end; visibility: hidden; font-family: Roboto, sans-serif; font-size: 12px; font-weight: 200;" fill="rgb(50, 49, 63)" stroke="none" stroke-width="1px">1.02</text></g><line x1="50" y1="0" x2="50" y2="378" fill="rgb(0, 0, 0)" stroke="rgb(204, 204, 204)" stroke-width="1px"></line></g></g><g transform="translate(50, 0)" clip-path="url(#clip_0)"><clipPath id="clip_0"><rect width="833" height="378"></rect></clipPath><g><g><g><line x1="0" y1="0" x2="0" y2="378" fill="rgb(0, 0, 0)" stroke="rgb(60, 60, 60)" stroke-width="1px" opacity="0.25"></line><line x1="69.49241666666666" y1="0" x2="69.49241666666666" y2="378" fill="rgb(0, 0, 0)" stroke="rgb(60, 60, 60)" stroke-width="1px" opacity="0.25"></line><line x1="138.9848333333333" y1="0" x2="138.9848333333333" y2="378" fill="rgb(0, 0, 0)" stroke="rgb(60, 60, 60)" stroke-width="1px" opacity="0.25"></line><line x1="208.47725" y1="0" x2="208.47725" y2="378" fill="rgb(0, 0, 0)" stroke="rgb(60, 60, 60)" stroke-width="1px" opacity="0.25"></line><line x1="277.9696666666666" y1="0" x2="277.9696666666666" y2="378" fill="rgb(0, 0, 0)" stroke="rgb(60, 60, 60)" stroke-width="1px" opacity="0.25"></line><line x1="347.46208333333334" y1="0" x2="347.46208333333334" y2="378" fill="rgb(0, 0, 0)" stroke="rgb(60, 60, 60)" stroke-width="1px" opacity="0.25"></line><line x1="416.9545" y1="0" x2="416.9545" y2="378" fill="rgb(0, 0, 0)" stroke="rgb(60, 60, 60)" stroke-width="1px" opacity="0.25"></line><line x1="486.4469166666667" y1="0" x2="486.4469166666667" y2="378" fill="rgb(0, 0, 0)" stroke="rgb(60, 60, 60)" stroke-width="1px" opacity="0.25"></line><line x1="555.9393333333333" y1="0" x2="555.9393333333333" y2="378" fill="rgb(0, 0, 0)" stroke="rgb(60, 60, 60)" stroke-width="1px" opacity="0.25"></line><line x1="625.43175" y1="0" x2="625.43175" y2="378" fill="rgb(0, 0, 0)" stroke="rgb(60, 60, 60)" stroke-width="1px" opacity="0.25"></line><line x1="694.9241666666667" y1="0" x2="694.9241666666667" y2="378" fill="rgb(0, 0, 0)" stroke="rgb(60, 60, 60)" stroke-width="1px" opacity="0.25"></line><line x1="764.4165833333333" y1="0" x2="764.4165833333333" y2="378" fill="rgb(0, 0, 0)" stroke="rgb(60, 60, 60)" stroke-width="1px" opacity="0.25"></line><line x1="833.909" y1="0" x2="833.909" y2="378" fill="rgb(0, 0, 0)" stroke="rgb(60, 60, 60)" stroke-width="1px" opacity="0.25"></line></g><g><line x1="0" y1="378" x2="833.909" y2="378" fill="rgb(0, 0, 0)" stroke="rgb(60, 60, 60)" stroke-width="1px" opacity="0.25"></line><line x1="0" y1="336" x2="833.909" y2="336" fill="rgb(0, 0, 0)" stroke="rgb(60, 60, 60)" stroke-width="1px" opacity="0.25"></line><line x1="0" y1="293.99999999999994" x2="833.909" y2="293.99999999999994" fill="rgb(0, 0, 0)" stroke="rgb(60, 60, 60)" stroke-width="1px" opacity="0.25"></line><line x1="0" y1="251.99999999999994" x2="833.909" y2="251.99999999999994" fill="rgb(0, 0, 0)" stroke="rgb(60, 60, 60)" stroke-width="1px" opacity="0.25"></line><line x1="0" y1="209.99999999999991" x2="833.909" y2="209.99999999999991" fill="rgb(0, 0, 0)" stroke="rgb(60, 60, 60)" stroke-width="1px" opacity="0.25"></line><line x1="0" y1="168.0000000000001" x2="833.909" y2="168.0000000000001" fill="rgb(0, 0, 0)" stroke="rgb(60, 60, 60)" stroke-width="1px" opacity="0.25"></line><line x1="0" y1="126.0000000000001" x2="833.909" y2="126.0000000000001" fill="rgb(0, 0, 0)" stroke="rgb(60, 60, 60)" stroke-width="1px" opacity="0.25"></line><line x1="0" y1="84.00000000000004" x2="833.909" y2="84.00000000000004" fill="rgb(0, 0, 0)" stroke="rgb(60, 60, 60)" stroke-width="1px" opacity="0.25"></line><line x1="0" y1="42.00000000000002" x2="833.909" y2="42.00000000000002" fill="rgb(0, 0, 0)" stroke="rgb(60, 60, 60)" stroke-width="1px" opacity="0.25"></line><line x1="0" y1="0" x2="833.909" y2="0" fill="rgb(0, 0, 0)" stroke="rgb(60, 60, 60)" stroke-width="1px" opacity="0.25"></line></g></g></g><g><g><line x1="0" y1="2141.9999999999995" x2="833.909" y2="2141.9999999999995" fill="rgb(0, 0, 0)" stroke="rgb(153, 153, 153)" stroke-width="1.5px"></line></g></g><g><g><line x1="69.49241666666666" y1="0" x2="69.49241666666666" y2="378" fill="rgb(0, 0, 0)" stroke="rgb(153, 153, 153)" stroke-width="1.5px"></line></g></g><g><g><g><g><g><path stroke="rgb(0, 119, 187)" stroke-width="2px" d="M125.08635,381.0504258839069L138.9848333333333,364.0309414569616L152.88331666666664,350.10064989680546L166.7818,269.41587446327844L180.68028333333334,218.15890025179527L194.57876666666667,186.1511437392542L208.47725,165.09903928596302L222.37573333333333,158.3222162191026L236.27421666666666,141.97217209988435L250.1727,142.32248264064586L264.0711833333333,130.97362692329875L277.9696666666666,129.75790685463502L291.86814999999996,123.72631023513335L305.7666333333333,118.46971006694481L319.6651166666667,118.10182390142653L333.5636,113.44799062467777L347.46208333333334,108.98613353922332L361.36056666666667,103.74679019970999L375.25905,106.05351001831201L389.15753333333333,103.83126861804215L403.05601666666666,102.5490380791409L416.9545,102.6974810853574L430.8529833333334,101.006554878933L444.75146666666666,104.47238753687395L458.64995000000005,105.58388383643306L472.5484333333333,101.78372104513372L486.4469166666667,99.59102728803337L500.3454,96.54921293367867L514.2438833333333,101.90050059240109L528.1423666666666,98.77006763934774L542.04085,98.74043792283724L555.9393333333333,101.38820727369686L569.8378166666666,101.13939305511394L583.7362999999999,101.88411581547054L597.6347833333333,97.87232508136762L611.5332666666666,99.11072903084919L625.43175,92.71887370678974L639.3302333333334,96.13718758768943L653.2287166666666,92.77977036872424L667.1272,93.50740632405409L681.0256833333333,93.0389637067581L694.9241666666667,88.32717655228292L708.82265,89.16168256497008L722.7211333333333,90.53148109777996L736.6196166666666,92.21014341469998L750.5181,89.62557731759689" style="fill: none;" fill="none"></path></g><g><path stroke="rgb(204, 51, 17)" stroke-width="2px" d="M69.49241666666666,338.0999429225921L83.3909,327.4468618341843" style="fill: none;" fill="none"></path></g><g><path stroke="rgb(255, 112, 67)" stroke-width="2px" d="M69.49241666666666,338.0999429225921L83.3909,327.4468618341843L97.28938333333333,319.8304295945051L111.18786666666666,312.5372717199796L125.08635,307.9562338649837L138.9848333333333,221.58326848650375L152.88331666666664,157.58125773038128L166.7818,120.67313543157316L180.68028333333334,101.47105226580705L194.57876666666667,88.69875299373831L208.47725,80.47367848660645L222.37573333333333,74.85127756646897L236.27421666666666,70.72322362064259L250.1727,68.34350120498249L264.0711833333333,66.97112127313393L277.9696666666666,65.2910749118519L291.86814999999996,63.43349140456315L305.7666333333333,62.36177364809375L319.6651166666667,61.743428430335925L333.5636,61.38665520022952L347.46208333333334,61.180801028307215L361.36056666666667,60.17373098532045L375.25905,59.592655312493044L389.15753333333333,60.14566610587083L403.05601666666666,59.57646313555525L416.9545,58.35974431604664L430.8529833333334,57.657698058300475L444.75146666666666,57.252617534415236L458.64995000000005,57.018886127677554L472.5484333333333,56.88402312448205L486.4469166666667,56.80620717779448L500.3454,56.76130737860555L514.2438833333333,55.847058673181806L528.1423666666666,55.31953717816993L542.04085,55.01515727821725L555.9393333333333,54.83953007683341L569.8378166666666,54.73819318193094L583.7362999999999,54.67972179367068L597.6347833333333,54.64598380267717L611.5332666666666,54.62651698188466L625.43175,54.61528462629105L639.3302333333334,54.60880355711479L653.2287166666666,54.60506398020041L667.1272,54.60290624432102L681.0256833333333,54.601661230718605L694.9241666666667,54.60094285787009L708.82265,54.60052835673657L722.7211333333333,54.60028918958265L736.6196166666666,54.600151190134596L750.5181,54.60007156445302" style="fill: none;" fill="none"></path></g></g></g></g><g opacity="0.2"><g><g><g><path stroke="rgb(0, 119, 187)" stroke-width="2px" d="M97.28938333333333,417.9000420570373L111.18786666666666,375.89995694160456L125.08635,352.8000040054321L138.9848333333333,342.3000140190124L152.88331666666664,331.8000240325927L166.7818,161.69996094703674L180.68028333333334,149.09999799728394L194.57876666666667,142.79995393753052L208.47725,136.50003504753113L222.37573333333333,149.09999799728394L236.27421666666666,119.70000100135805L250.1727,142.79995393753052L264.0711833333333,115.50005507469177L277.9696666666666,128.1000180244446L291.86814999999996,115.50005507469177L305.7666333333333,111.2999839782715L319.6651166666667,117.60002803802492L333.5636,107.10003805160522L347.46208333333334,102.89996695518495L361.36056666666667,96.60004806518558L375.25905,109.20001101493835L389.15753333333333,100.7999939918518L403.05601666666666,100.7999939918518L416.9545,102.89996695518495L430.8529833333334,98.70002102851866L444.75146666666666,109.20001101493835L458.64995000000005,107.10003805160522L472.5484333333333,96.60004806518558L486.4469166666667,96.60004806518558L500.3454,92.39997696876526L514.2438833333333,109.20001101493835L528.1423666666666,94.49994993209839L542.04085,98.70002102851866L555.9393333333333,104.99993991851808L569.8378166666666,100.7999939918518L583.7362999999999,102.89996695518495L597.6347833333333,92.39997696876526L611.5332666666666,100.7999939918518L625.43175,83.99995994567874L639.3302333333334,100.7999939918518L653.2287166666666,88.20003104209901L667.1272,94.49994993209839L681.0256833333333,92.39997696876526L694.9241666666667,81.89998698234561L708.82265,90.30000400543216L722.7211333333333,92.39997696876526L736.6196166666666,94.49994993209839L750.5181,86.10005807876588" style="fill: none;" fill="none"></path></g><g><path stroke="rgb(204, 51, 17)" stroke-width="2px" d="M69.49241666666666,338.0999429225921L83.3909,321.30003404617304" style="fill: none;" fill="none"></path></g><g><path stroke="rgb(255, 112, 67)" stroke-width="2px" d="M69.49241666666666,338.0999429225921L83.3909,321.30003404617304L97.28938333333333,312.90001702308655L111.18786666666666,304.49999999999994L125.08635,302.4000270366668L138.9848333333333,111.2999839782715L152.88331666666664,73.49996995925905L166.7818,71.39999699592592L180.68028333333334,75.59994292259219L194.57876666666667,71.39999699592592L208.47725,69.30002403259277L222.37573333333333,67.20005106925967L236.27421666666666,65.0999529361725L250.1727,65.0999529361725L264.0711833333333,65.0999529361725L277.9696666666666,62.99997997283936L291.86814999999996,60.90000700950626L305.7666333333333,60.90000700950626L319.6651166666667,60.90000700950626L333.5636,60.90000700950626L347.46208333333334,60.90000700950626L361.36056666666667,58.800034046173124L375.25905,58.800034046173124L389.15753333333333,60.90000700950626L403.05601666666666,58.800034046173124L416.9545,56.70006108283999L430.8529833333334,56.70006108283999L444.75146666666666,56.70006108283999L458.64995000000005,56.70006108283999L472.5484333333333,56.70006108283999L486.4469166666667,56.70006108283999L500.3454,56.70006108283999L514.2438833333333,54.59996294975285L528.1423666666666,54.59996294975285L542.04085,54.59996294975285L555.9393333333333,54.59996294975285L569.8378166666666,54.59996294975285L583.7362999999999,54.59996294975285L597.6347833333333,54.59996294975285L611.5332666666666,54.59996294975285L625.43175,54.59996294975285L639.3302333333334,54.59996294975285L653.2287166666666,54.59996294975285L667.1272,54.59996294975285L681.0256833333333,54.59996294975285L694.9241666666667,54.59996294975285L708.82265,54.59996294975285L722.7211333333333,54.59996294975285L736.6196166666666,54.59996294975285L750.5181,54.59996294975285" style="fill: none;" fill="none"></path></g></g></g></g></g><g><g opacity="0.992191"><span fill="rgb(0, 0, 0)" stroke="none" stroke-width="1px">Alt + Scroll to Zoom</span></g></g></g><g transform="translate(50, 378)" clip-path="url(#clip_1)"><clipPath id="clip_1"><rect width="833" height="22"></rect></clipPath><g><g><line x1="0" y1="0" x2="0" y2="5" style="visibility: inherit;" fill="rgb(0, 0, 0)" stroke="rgb(204, 204, 204)" stroke-width="1px"></line><line x1="69.49241666666666" y1="0" x2="69.49241666666666" y2="5" style="visibility: inherit;" fill="rgb(0, 0, 0)" stroke="rgb(204, 204, 204)" stroke-width="1px"></line><line x1="138.9848333333333" y1="0" x2="138.9848333333333" y2="5" style="visibility: inherit;" fill="rgb(0, 0, 0)" stroke="rgb(204, 204, 204)" stroke-width="1px"></line><line x1="208.47725" y1="0" x2="208.47725" y2="5" style="visibility: inherit;" fill="rgb(0, 0, 0)" stroke="rgb(204, 204, 204)" stroke-width="1px"></line><line x1="277.9696666666666" y1="0" x2="277.9696666666666" y2="5" style="visibility: inherit;" fill="rgb(0, 0, 0)" stroke="rgb(204, 204, 204)" stroke-width="1px"></line><line x1="347.46208333333334" y1="0" x2="347.46208333333334" y2="5" style="visibility: inherit;" fill="rgb(0, 0, 0)" stroke="rgb(204, 204, 204)" stroke-width="1px"></line><line x1="416.9545" y1="0" x2="416.9545" y2="5" style="visibility: inherit;" fill="rgb(0, 0, 0)" stroke="rgb(204, 204, 204)" stroke-width="1px"></line><line x1="486.4469166666667" y1="0" x2="486.4469166666667" y2="5" style="visibility: inherit;" fill="rgb(0, 0, 0)" stroke="rgb(204, 204, 204)" stroke-width="1px"></line><line x1="555.9393333333333" y1="0" x2="555.9393333333333" y2="5" style="visibility: inherit;" fill="rgb(0, 0, 0)" stroke="rgb(204, 204, 204)" stroke-width="1px"></line><line x1="625.43175" y1="0" x2="625.43175" y2="5" style="visibility: inherit;" fill="rgb(0, 0, 0)" stroke="rgb(204, 204, 204)" stroke-width="1px"></line><line x1="694.9241666666667" y1="0" x2="694.9241666666667" y2="5" style="visibility: inherit;" fill="rgb(0, 0, 0)" stroke="rgb(204, 204, 204)" stroke-width="1px"></line><line x1="764.4165833333333" y1="0" x2="764.4165833333333" y2="5" style="visibility: inherit;" fill="rgb(0, 0, 0)" stroke="rgb(204, 204, 204)" stroke-width="1px"></line><line x1="833.909" y1="0" x2="833.909" y2="5" style="visibility: inherit;" fill="rgb(0, 0, 0)" stroke="rgb(204, 204, 204)" stroke-width="1px"></line></g><g transform="translate(0, 8)"><text x="0" y="0" dx="0em" dy="0.95em" style="text-anchor: middle; visibility: hidden; font-family: Roboto, sans-serif; font-size: 12px; font-weight: 200;" fill="rgb(50, 49, 63)" stroke="none" stroke-width="1px">-5</text><text x="69.49241666666666" y="0" dx="0em" dy="0.95em" style="text-anchor: middle; visibility: inherit; font-family: Roboto, sans-serif; font-size: 12px; font-weight: 200;" fill="rgb(50, 49, 63)" stroke="none" stroke-width="1px">0</text><text x="138.9848333333333" y="0" dx="0em" dy="0.95em" style="text-anchor: middle; visibility: inherit; font-family: Roboto, sans-serif; font-size: 12px; font-weight: 200;" fill="rgb(50, 49, 63)" stroke="none" stroke-width="1px">5</text><text x="208.47725" y="0" dx="0em" dy="0.95em" style="text-anchor: middle; visibility: inherit; font-family: Roboto, sans-serif; font-size: 12px; font-weight: 200;" fill="rgb(50, 49, 63)" stroke="none" stroke-width="1px">10</text><text x="277.9696666666666" y="0" dx="0em" dy="0.95em" style="text-anchor: middle; visibility: inherit; font-family: Roboto, sans-serif; font-size: 12px; font-weight: 200;" fill="rgb(50, 49, 63)" stroke="none" stroke-width="1px">15</text><text x="347.46208333333334" y="0" dx="0em" dy="0.95em" style="text-anchor: middle; visibility: inherit; font-family: Roboto, sans-serif; font-size: 12px; font-weight: 200;" fill="rgb(50, 49, 63)" stroke="none" stroke-width="1px">20</text><text x="416.9545" y="0" dx="0em" dy="0.95em" style="text-anchor: middle; visibility: inherit; font-family: Roboto, sans-serif; font-size: 12px; font-weight: 200;" fill="rgb(50, 49, 63)" stroke="none" stroke-width="1px">25</text><text x="486.4469166666667" y="0" dx="0em" dy="0.95em" style="text-anchor: middle; visibility: inherit; font-family: Roboto, sans-serif; font-size: 12px; font-weight: 200;" fill="rgb(50, 49, 63)" stroke="none" stroke-width="1px">30</text><text x="555.9393333333333" y="0" dx="0em" dy="0.95em" style="text-anchor: middle; visibility: inherit; font-family: Roboto, sans-serif; font-size: 12px; font-weight: 200;" fill="rgb(50, 49, 63)" stroke="none" stroke-width="1px">35</text><text x="625.43175" y="0" dx="0em" dy="0.95em" style="text-anchor: middle; visibility: inherit; font-family: Roboto, sans-serif; font-size: 12px; font-weight: 200;" fill="rgb(50, 49, 63)" stroke="none" stroke-width="1px">40</text><text x="694.9241666666667" y="0" dx="0em" dy="0.95em" style="text-anchor: middle; visibility: inherit; font-family: Roboto, sans-serif; font-size: 12px; font-weight: 200;" fill="rgb(50, 49, 63)" stroke="none" stroke-width="1px">45</text><text x="764.4165833333333" y="0" dx="0em" dy="0.95em" style="text-anchor: middle; visibility: inherit; font-family: Roboto, sans-serif; font-size: 12px; font-weight: 200;" fill="rgb(50, 49, 63)" stroke="none" stroke-width="1px">50</text><text x="833.909" y="0" dx="0em" dy="0.95em" style="text-anchor: middle; visibility: hidden; font-family: Roboto, sans-serif; font-size: 12px; font-weight: 200;" fill="rgb(50, 49, 63)" stroke="none" stroke-width="1px">55</text></g><line x1="0" y1="0" x2="833.909" y2="0" fill="rgb(0, 0, 0)" stroke="rgb(204, 204, 204)" stroke-width="1px"></line></g></g></g></g></svg>