<?xml version="1.0" encoding="UTF-8" standalone="no"?>
<!DOCTYPE svg PUBLIC "-//W3C//DTD SVG 1.1//EN" "http://www.w3.org/Graphics/SVG/1.1/DTD/svg11.dtd">
<svg width="100%" height="100%" viewBox="0 0 1067 500" version="1.1" xmlns="http://www.w3.org/2000/svg" xmlns:xlink="http://www.w3.org/1999/xlink" xml:space="preserve" xmlns:serif="http://www.serif.com/" style="fill-rule:evenodd;clip-rule:evenodd;stroke-linejoin:round;stroke-miterlimit:2;">
    <g transform="matrix(1,0,0,1,156.785,-170.21)">
        <g transform="matrix(1,0,0,1,725.434,528.193)">
            <path d="M0,64.789C-5.489,63.329 -10.51,65.919 -14.89,68.989C-19.25,72.039 -28.92,80.249 -31.12,70.14C-33.16,60.739 -20.83,52.529 -15.41,46.319C-9.27,39.279 -3.439,31.51 0.86,23.18C7.71,9.89 6.82,-6.981 -4.26,-14.561C-26.18,-29.561 -40.71,-8.411 -44.64,-2.621C-45.12,-1.931 -45.64,-1.261 -46.199,-0.641C-48,1.369 -48.729,1.579 -50.67,-1.021C-53.899,-5.32 -52.31,-11.061 -50.88,-15.7C-48.779,-22.551 -47.3,-29.07 -47.949,-36.28C-49.13,-49.471 -56.229,-62.211 -66.819,-70.15C-72.16,-74.15 -80.04,-78.641 -86.949,-77.251C-93.62,-75.911 -97.01,-69.081 -97.3,-62.791C-97.699,-54.311 -92.41,-47.74 -88.729,-40.57C-84.66,-32.631 -84.72,-24.15 -89.41,-17.041C-100.71,-34.82 -109.279,-55.61 -128.149,-66.74C-143.029,-75.521 -162.05,-75.561 -173.18,-60.9C-177.56,-55.141 -179.96,-47.551 -178.17,-40.381C-175.729,-30.641 -166.87,-25.061 -158.699,-20.421C-147.39,-14.001 -136.04,-7.65 -124.71,-1.28C-119.04,1.909 -113.37,5.089 -107.699,8.279C-102.54,11.189 -95.79,14.3 -93.199,20.019C-92.1,22.47 -91.729,26.22 -93.34,28.55C-95.25,31.329 -98.5,31.379 -101.58,31.149C-107.52,30.709 -113.3,28.709 -118.85,26.68C-128.77,23.05 -138.77,18.629 -149.51,18.439C-158.38,18.279 -167.01,21.339 -172.79,28.289C-178.189,34.81 -179.18,43.68 -174.819,51.019C-170.35,58.539 -161.91,62.97 -153.93,65.839C-143.33,69.649 -132.06,71.919 -120.83,72.72C-115.26,73.119 -109.449,72.519 -103.949,73.579C-101.05,74.14 -98.01,75.239 -96.58,77.999C-94.899,81.249 -95.5,85.47 -99.85,85.289C-104.859,85.079 -109.62,82.879 -114.76,82.879C-119.37,82.879 -123.96,83.919 -127.77,86.619C-136.06,92.499 -135.88,102.97 -130.87,111.01C-125.12,120.26 -114.3,125.039 -103.91,126.769C-91.84,128.769 -79.58,126.379 -67.449,126.68C-55.51,126.97 -44.1,130.51 -34.75,137.649C-33.109,138.899 -31.81,140.519 -30.489,142.109C-30.06,142.629 -29.42,142.999 -28.72,143.159C-27.56,143.43 -26.229,143.119 -25.439,141.949C-25.34,141.81 -25.25,141.659 -25.17,141.489C-20.83,132.43 -15.479,123.939 -9.09,116.189C-3.29,109.149 4.021,103.129 8.561,95.129C14.17,85.249 13.181,68.279 0,64.789" style="fill:rgb(251,254,199);fill-rule:nonzero;"/>
        </g>
        <g transform="matrix(1,0,0,1,708.054,529.832)">
            <path d="M0,93.55C-6.649,99.36 -11.439,106.35 -15.58,114.08C-12.569,122.6 -10.01,131.279 -8.069,140.25C-8.069,140.27 -8.06,140.29 -8.06,140.31C-8.85,141.48 -10.18,141.79 -11.34,141.52C-11.53,140.58 -11.72,139.65 -11.92,138.73C-16.33,118.14 -24.359,98.96 -32.88,79.779C-36.02,72.71 -39.2,65.67 -42.479,58.67C-42.569,58.65 -42.66,58.62 -42.75,58.58C-50.609,55.07 -59,54.739 -67.439,54.08C-74.729,53.52 -81.979,52.949 -89.2,51.91C-89.729,51.83 -89.569,51.02 -89.08,51.01C-80.34,50.85 -71.58,51.279 -62.84,51.84C-56.42,52.25 -50.14,52.94 -44.14,55.15C-47.74,47.56 -51.479,40.04 -55.439,32.63C-58.06,27.72 -60.79,22.86 -63.67,18.07C-63.99,17.84 -64.229,17.48 -64.28,17.07C-79.52,-8.09 -98.56,-31.03 -124.1,-46.31C-124.99,-46.85 -124.18,-48.24 -123.28,-47.71C-106.6,-37.81 -92.319,-24.57 -80.27,-9.42C-74.149,-1.73 -68.6,6.35 -63.43,14.67C-57.99,2.6 -53.88,-10.2 -51.45,-23.21C-51.26,-24.2 -49.81,-23.761 -49.96,-22.801C-52.09,-8.78 -55.91,4.5 -61.71,17.44C-48.92,38.52 -38.55,61.12 -28.24,83.43C-24.12,92.35 -20.27,101.29 -16.899,110.4C-12.939,103.43 -7.31,97.47 -1.08,92.47C-0.33,91.87 0.75,92.89 0,93.55" style="fill:rgb(36,46,107);fill-rule:nonzero;"/>
        </g>
        <g transform="matrix(1,0,0,1,128.732,455.26)">
            <path d="M0,182.334C-2.53,177.248 -7.79,175.189 -12.988,173.928C-18.158,172.668 -30.709,170.83 -24.571,162.501C-18.86,154.761 -4.552,158.597 3.69,158.564C13.032,158.525 22.717,157.772 31.812,155.499C46.314,151.864 58.394,140.055 56.768,126.729C53.554,100.363 28.076,103.421 21.133,104.295C20.298,104.39 19.451,104.441 18.616,104.431C15.918,104.407 15.278,103.997 15.949,100.823C17.045,95.559 22.404,92.961 26.833,90.971C33.363,88.023 39.236,84.828 44.221,79.578C53.346,69.98 58.223,56.235 57.19,43.04C56.667,36.389 54.834,27.506 49.227,23.235C43.815,19.112 36.447,21.078 31.533,25.015C24.901,30.314 23.462,38.626 20.509,46.125C17.235,54.425 10.828,59.98 2.392,61.154C8.279,40.927 18.229,20.761 14.124,-0.759C10.89,-17.73 -1.643,-32.038 -20.001,-30.713C-27.219,-30.198 -34.503,-26.987 -38.705,-20.907C-44.406,-12.643 -42.745,-2.305 -40.833,6.895C-38.184,19.627 -35.456,32.343 -32.756,45.058C-31.406,51.422 -30.049,57.779 -28.699,64.144C-27.477,69.94 -25.354,77.063 -27.938,82.785C-29.052,85.23 -31.623,87.983 -34.436,88.313C-37.784,88.716 -39.969,86.309 -41.83,83.844C-45.423,79.093 -47.738,73.432 -49.88,67.924C-53.706,58.078 -56.991,47.65 -63.942,39.46C-69.68,32.694 -77.678,28.235 -86.714,28.485C-95.176,28.737 -102.489,33.852 -105.121,41.974C-107.815,50.296 -105.567,59.56 -102.452,67.447C-98.313,77.922 -92.573,87.884 -85.757,96.845C-82.379,101.291 -78.091,105.257 -75.255,110.087C-73.76,112.635 -72.578,115.644 -73.706,118.54C-75.037,121.948 -78.602,124.285 -81.34,120.899C-84.49,116.999 -85.982,111.972 -89.377,108.112C-92.422,104.651 -96.234,101.892 -100.778,100.813C-110.668,98.473 -118.411,105.522 -121.139,114.595C-124.287,125.021 -120.729,136.303 -115.167,145.247C-108.697,155.631 -98.805,163.258 -91.02,172.563C-83.351,181.721 -78.474,192.626 -77.659,204.362C-77.515,206.419 -77.873,208.466 -78.194,210.507C-78.301,211.173 -78.156,211.897 -77.814,212.529C-77.251,213.578 -76.14,214.372 -74.739,214.192C-74.568,214.176 -74.396,214.144 -74.216,214.092C-64.546,211.367 -54.638,209.776 -44.599,209.456C-35.481,209.162 -26.134,210.675 -17.128,208.8C-6.005,206.487 6.084,194.536 0,182.334" style="fill:rgb(251,254,199);fill-rule:nonzero;"/>
        </g>
        <g transform="matrix(1,0,0,1,94.4268,482.743)">
            <path d="M0,161.879C-8.754,160.723 -17.166,161.742 -25.705,163.739C-30.114,171.626 -34.941,179.281 -40.396,186.662C-40.41,186.676 -40.419,186.696 -40.434,186.709C-41.834,186.889 -42.945,186.095 -43.509,185.046C-42.928,184.282 -42.355,183.525 -41.797,182.768C-29.249,165.858 -20.15,147.16 -11.376,128.096C-8.142,121.068 -4.955,114.031 -1.865,106.945C-1.91,106.864 -1.947,106.777 -1.977,106.683C-4.532,98.463 -9.825,91.945 -14.904,85.172C-19.298,79.328 -23.658,73.508 -27.646,67.4C-27.936,66.949 -27.222,66.534 -26.891,66.896C-20.998,73.353 -15.536,80.214 -10.184,87.147C-6.252,92.238 -2.622,97.409 -0.318,103.374C3.003,95.658 6.179,87.883 9.128,80.016C11.084,74.806 12.93,69.546 14.625,64.22C14.586,63.828 14.698,63.41 14.973,63.102C23.799,35.041 28.449,5.594 23.055,-23.675C22.872,-24.7 24.45,-25.01 24.647,-23.983C28.229,-4.921 27.72,14.546 24.303,33.6C22.57,43.274 20.169,52.777 17.336,62.154C29.992,58.268 42.317,52.9 53.691,46.132C54.56,45.621 55.188,47 54.367,47.522C42.434,55.182 29.939,61.084 16.393,65.275C9.011,88.802 -1.109,111.515 -11.052,133.99C-15.029,142.976 -19.199,151.771 -23.813,160.317C-15.965,158.688 -7.771,158.979 0.098,160.355C1.044,160.522 0.991,162.006 0,161.879" style="fill:rgb(36,46,107);fill-rule:nonzero;"/>
        </g>
    </g>
</svg>
