<?xml version="1.0" encoding="UTF-8" standalone="no"?>
<!DOCTYPE svg PUBLIC "-//W3C//DTD SVG 1.1//EN" "http://www.w3.org/Graphics/SVG/1.1/DTD/svg11.dtd">
<svg width="100%" height="100%" viewBox="0 0 924 475" version="1.1" xmlns="http://www.w3.org/2000/svg" xmlns:xlink="http://www.w3.org/1999/xlink" xml:space="preserve" xmlns:serif="http://www.serif.com/" style="fill-rule:evenodd;clip-rule:evenodd;stroke-linejoin:round;stroke-miterlimit:2;">
    <g id="Artboard1" transform="matrix(1,0,0,1,2.42209,6.86841)">
        <rect x="-2.422" y="-6.868" width="923.512" height="474.192" style="fill:none;"/>
        <clipPath id="_clip1">
            <rect x="-2.422" y="-6.868" width="923.512" height="474.192"/>
        </clipPath>
        <g clip-path="url(#_clip1)">
            <g transform="matrix(1,0,0,1,40.1505,-51.9758)">
                <g transform="matrix(1,0,0,1,742.626,526.222)">
                    <path d="M0,-260.695C32.584,-241.062 61.021,-215.238 83.448,-184.484C107.539,-151.448 124.25,-113.238 132.251,-73.144C136.914,-49.775 138.678,-25.879 137.482,-2.081C137.349,0.583 133.187,0.599 133.323,-2.081C137.425,-82.884 106.335,-162.608 48.956,-219.546C33.868,-234.517 17.124,-247.885 -0.906,-259.146C-1.883,-259.756 -0.994,-261.294 0,-260.695" style="fill:rgb(249,170,77);fill-rule:nonzero;"/>
                </g>
                <g transform="matrix(1,0,0,1,682.569,273.301)">
                    <path d="M0,-55.523C0,-55.523 56.947,-54.805 61.956,-4.861C13.481,0 0,-55.523 0,-55.523" style="fill:rgb(249,170,77);fill-rule:nonzero;"/>
                </g>
                <g transform="matrix(1,0,0,1,767.514,277.854)">
                    <path d="M0,-79.638C0,-79.638 30.896,-31.795 -7.943,0C-38.803,-37.698 0,-79.638 0,-79.638" style="fill:rgb(249,170,77);fill-rule:nonzero;"/>
                </g>
                <g transform="matrix(1,0,0,1,684.519,274.845)">
                    <path d="M0,32.741C0,32.741 54.582,48.998 74.224,2.806C29.39,-16.257 0,32.741 0,32.741" style="fill:rgb(249,170,77);fill-rule:nonzero;"/>
                </g>
                <g transform="matrix(1,0,0,1,716.451,300.873)">
                    <path d="M0,32.741C0,32.741 54.582,48.998 74.224,2.806C29.39,-16.257 0,32.741 0,32.741" style="fill:rgb(249,170,77);fill-rule:nonzero;"/>
                </g>
                <g transform="matrix(1,0,0,1,743.134,332.417)">
                    <path d="M0,24.39C0,24.39 52.735,45.896 76.791,1.841C34.031,-21.506 0,24.39 0,24.39" style="fill:rgb(249,170,77);fill-rule:nonzero;"/>
                </g>
                <g transform="matrix(1,0,0,1,107.519,525.458)">
                    <path d="M0,-260.695C-32.584,-241.062 -61.021,-215.238 -83.449,-184.484C-107.539,-151.448 -124.25,-113.238 -132.251,-73.145C-136.915,-49.776 -138.678,-25.879 -137.483,-2.08C-137.35,0.584 -133.187,0.599 -133.324,-2.08C-137.426,-82.884 -106.335,-162.608 -48.956,-219.546C-33.869,-234.517 -17.124,-247.885 0.905,-259.146C1.882,-259.756 0.994,-261.294 0,-260.695" style="fill:rgb(249,170,77);fill-rule:nonzero;"/>
                </g>
                <g transform="matrix(1,0,0,1,167.574,272.537)">
                    <path d="M0,-55.523C0,-55.523 -56.947,-54.805 -61.956,-4.861C-13.481,0 0,-55.523 0,-55.523" style="fill:rgb(249,170,77);fill-rule:nonzero;"/>
                </g>
                <g transform="matrix(1,0,0,1,82.6312,277.09)">
                    <path d="M0,-79.638C0,-79.638 -30.897,-31.795 7.942,0C38.803,-37.698 0,-79.638 0,-79.638" style="fill:rgb(249,170,77);fill-rule:nonzero;"/>
                </g>
                <g transform="matrix(1,0,0,1,50.9105,302.849)">
                    <path d="M0,-79.637C0,-79.637 -30.897,-31.795 7.942,0C38.803,-37.698 0,-79.637 0,-79.637" style="fill:rgb(249,170,77);fill-rule:nonzero;"/>
                </g>
                <g transform="matrix(1,0,0,1,21.681,335.048)">
                    <path d="M0,-79.638C0,-79.638 -30.897,-31.795 7.943,0C38.803,-37.698 0,-79.638 0,-79.638" style="fill:rgb(249,170,77);fill-rule:nonzero;"/>
                </g>
                <g transform="matrix(1,0,0,1,-10.8317,371.075)">
                    <path d="M0,-78.245C0,-78.245 -25.339,-27.24 16.821,0C43.26,-40.92 0,-78.245 0,-78.245" style="fill:rgb(249,170,77);fill-rule:nonzero;"/>
                </g>
                <g transform="matrix(1,0,0,1,-41.1637,414.819)">
                    <path d="M0,-74.834C0,-74.834 -17.396,-20.604 28.374,0C48.372,-44.424 0,-74.834 0,-74.834" style="fill:rgb(249,170,77);fill-rule:nonzero;"/>
                </g>
                <g transform="matrix(1,0,0,1,165.625,274.081)">
                    <path d="M0,32.741C0,32.741 -54.583,48.998 -74.224,2.806C-29.391,-16.257 0,32.741 0,32.741" style="fill:rgb(249,170,77);fill-rule:nonzero;"/>
                </g>
                <g transform="matrix(1,0,0,1,133.693,300.109)">
                    <path d="M0,32.741C0,32.741 -54.583,48.998 -74.224,2.806C-29.391,-16.257 0,32.741 0,32.741" style="fill:rgb(249,170,77);fill-rule:nonzero;"/>
                </g>
                <g transform="matrix(1,0,0,1,107.01,331.653)">
                    <path d="M0,24.39C0,24.39 -52.735,45.896 -76.79,1.841C-34.031,-21.506 0,24.39 0,24.39" style="fill:rgb(249,170,77);fill-rule:nonzero;"/>
                </g>
                <g transform="matrix(1,0,0,1,86.1439,369.786)">
                    <path d="M0,17.922C0,17.922 -51.005,43.26 -78.244,1.1C-37.324,-25.338 0,17.922 0,17.922" style="fill:rgb(249,170,77);fill-rule:nonzero;"/>
                </g>
                <g transform="matrix(1,0,0,1,67.0804,414.209)">
                    <path d="M0,6.49C0,6.49 -47.35,38.137 -79.753,-0.197C-42.547,-31.647 0,6.49 0,6.49" style="fill:rgb(249,170,77);fill-rule:nonzero;"/>
                </g>
                <g transform="matrix(1,0,0,1,55.1586,460.328)">
                    <path d="M0,-6.859C0,-6.859 -42.156,31.435 -79.866,-1.693C-47.713,-38.294 0,-6.859 0,-6.859" style="fill:rgb(249,170,77);fill-rule:nonzero;"/>
                </g>
                <g transform="matrix(1,0,0,1,324.193,717.812)">
                    <path d="M0,-271.187C-5.629,-233.565 -3.845,-195.193 5.569,-158.312C15.682,-118.696 34.484,-81.471 60.288,-49.758C75.328,-31.274 92.623,-14.69 111.727,-0.447C113.865,1.147 116.528,-2.05 114.377,-3.653C49.484,-51.976 7.848,-126.734 0.522,-207.237C-1.403,-228.404 -1.038,-249.828 1.771,-270.898C1.924,-272.04 0.172,-272.334 0,-271.187" style="fill:rgb(249,170,77);fill-rule:nonzero;"/>
                </g>
                <g transform="matrix(1,0,0,1,325.656,449.945)">
                    <path d="M0,-80.031C0,-80.031 -35.73,-35.682 -0.429,0C34.204,-34.263 0,-80.031 0,-80.031" style="fill:rgb(249,170,77);fill-rule:nonzero;"/>
                </g>
                <g transform="matrix(1,0,0,1,256.457,474.03)">
                    <path d="M0,-51.11C0,-51.11 17.188,3.186 66.44,-6.491C57.048,-54.296 0,-51.11 0,-51.11" style="fill:rgb(249,170,77);fill-rule:nonzero;"/>
                </g>
                <g transform="matrix(1,0,0,1,256.101,514.891)">
                    <path d="M0,-51.11C0,-51.11 17.187,3.186 66.44,-6.491C57.048,-54.296 0,-51.11 0,-51.11" style="fill:rgb(249,170,77);fill-rule:nonzero;"/>
                </g>
                <g transform="matrix(1,0,0,1,393.632,472.498)">
                    <path d="M0,-43.86C0,-43.86 -22.247,8.567 -70.363,-5.726C-56.49,-52.427 0,-43.86 0,-43.86" style="fill:rgb(249,170,77);fill-rule:nonzero;"/>
                </g>
                <g transform="matrix(1,0,0,1,393.349,513.693)">
                    <path d="M0,-43.86C0,-43.86 -22.247,8.567 -70.363,-5.726C-56.491,-52.427 0,-43.86 0,-43.86" style="fill:rgb(249,170,77);fill-rule:nonzero;"/>
                </g>
            </g>
        </g>
    </g>
</svg>
