<?xml version="1.0" encoding="UTF-8" standalone="no"?>
<!DOCTYPE svg PUBLIC "-//W3C//DTD SVG 1.1//EN" "http://www.w3.org/Graphics/SVG/1.1/DTD/svg11.dtd">
<svg width="100%" height="100%" viewBox="0 0 2848 1533" version="1.1" xmlns="http://www.w3.org/2000/svg" xmlns:xlink="http://www.w3.org/1999/xlink" xml:space="preserve" xmlns:serif="http://www.serif.com/" style="fill-rule:evenodd;clip-rule:evenodd;stroke-linejoin:round;stroke-miterlimit:2;">
    <g id="Artboard1" transform="matrix(1,0,0,1,53.8141,13.8401)">
        <rect x="-53.814" y="-13.84" width="2847.02" height="1532.23" style="fill:none;"/>
        <clipPath id="_clip1">
            <rect x="-53.814" y="-13.84" width="2847.02" height="1532.23"/>
        </clipPath>
        <g clip-path="url(#_clip1)">
            <g transform="matrix(1,0,0,1,1526.71,290.68)">
                <g transform="matrix(4.16667,0,0,4.16667,490.447,320.597)">
                    <path d="M0,278.464C-10.229,249.256 -12.556,221.766 -9.458,196.274C-8.812,197.349 -8.104,198.389 -7.502,199.483C0.766,214.63 11.028,221.004 10.819,220.528C1.467,198.974 -1.731,189.762 -4.494,170.933C-2.742,164.48 -0.654,158.18 1.707,152.035C2.834,154.397 3.794,156.848 4.831,159.162C7.074,164.156 9.622,169.136 13.898,172.708C14.214,172.975 14.762,172.733 14.778,172.321C15.345,158.919 12.047,145.653 10.443,132.365C28.993,95.666 56.854,65.485 82.117,43.258C82.651,48.652 84.113,53.998 86.619,58.592C86.832,58.997 87.457,59.049 87.643,58.571C90.998,49.836 93.376,40.758 96.374,31.897C96.473,31.612 96.567,31.338 96.665,31.054C121.423,11.235 140.838,0.348 141.437,0.006L141.451,0C122.705,50.592 117.407,100.43 111.773,137.902C101.466,148.693 89.271,157.664 79.011,168.581C78.773,168.823 78.928,169.35 79.255,169.429C84.476,170.786 89.986,169.796 95.097,168.422C99.177,167.329 103.155,165.887 107.086,164.318C106.361,167.537 105.617,170.594 104.794,173.453C94.266,210.112 73.979,252.207 0,278.464" style="fill:rgb(252,141,147);fill-rule:nonzero;"/>
                </g>
                <g transform="matrix(4.16667,0,0,4.16667,490.447,320.622)">
                    <path d="M0,278.458C-10.229,249.25 -12.556,221.76 -9.458,196.268C-8.812,197.343 -8.104,198.383 -7.502,199.477C0.766,214.624 11.028,220.998 10.819,220.522C1.467,198.968 -1.731,189.756 -4.494,170.927C-2.742,164.474 -0.654,158.174 1.707,152.029C2.834,154.391 3.794,156.842 4.831,159.156C7.074,164.15 9.622,169.13 13.898,172.702C14.214,172.969 14.762,172.727 14.778,172.315C15.345,158.913 12.047,145.647 10.443,132.359C28.993,95.66 56.854,65.479 82.117,43.252C82.651,48.646 84.113,53.992 86.619,58.586C86.832,58.991 87.457,59.043 87.643,58.565C90.998,49.83 93.376,40.752 96.374,31.891C96.473,31.606 96.567,31.332 96.665,31.048C121.423,11.229 140.838,0.342 141.437,0C140.496,0.914 73.927,65.918 0,278.458" style="fill:rgb(254,104,105);fill-rule:nonzero;"/>
                </g>
                <g transform="matrix(-4.16449,0.134604,0.134604,4.16449,973.046,576.829)">
                    <path d="M-1.448,-8.656C0.091,-6.829 1.654,-4.608 2.354,-2.294C3.066,0.061 -0.075,1.363 -1.448,-0.545C-2.743,-2.347 -3.588,-4.872 -4.06,-7.019C-4.363,-8.389 -2.58,-9.999 -1.448,-8.656" style="fill:rgb(254,104,105);fill-rule:nonzero;"/>
                </g>
                <g transform="matrix(-4.09334,0.778257,0.778257,4.09334,847.545,895.722)">
                    <path d="M-0.443,-7.461C0.727,-5.978 2.256,-4.409 3.024,-2.674C3.95,-0.586 1.072,1.591 -0.443,-0.367C-1.636,-1.911 -2.306,-3.933 -3.074,-5.711C-3.762,-7.3 -1.609,-8.943 -0.443,-7.461" style="fill:rgb(254,104,105);fill-rule:nonzero;"/>
                </g>
                <g transform="matrix(4.16667,0,0,4.16667,818.248,1222.34)">
                    <path d="M0,-7.532C-1.016,-6.696 -1.749,-5.519 -2.385,-4.383C-3.144,-3.024 -3.901,-1.749 -3.073,-0.24C-2.56,0.696 -1.396,0.87 -0.503,0.434C0.816,-0.212 0.905,-1.576 1.263,-2.845C1.581,-3.973 2.031,-5.074 2.232,-6.232C2.467,-7.578 1.057,-8.402 0,-7.532" style="fill:rgb(254,104,105);fill-rule:nonzero;"/>
                </g>
                <g transform="matrix(4.16667,0,0,4.16667,696.764,363.954)">
                    <path d="M0,137.307C-16.589,173.301 -41.168,201.862 -66.854,222.544C-76.458,201.026 -83.697,181.673 -88.406,163.462C-82.144,166.511 -73.854,168.031 -74.09,167.646C-79.951,158.247 -84.874,151.9 -92.629,143.205C-98.549,105.499 -92.312,71.266 -71.791,30.234C-69.657,33.404 -67.175,36.337 -64.582,39.085C-59.152,44.828 -52.974,49.987 -46.266,54.195C-45.903,54.411 -45.431,54.193 -45.392,53.759C-45.021,48.092 -47.25,42.999 -48.673,37.636C-50.4,31.148 -51.708,24.532 -53.457,18.036C-54.683,13.42 -55.959,8.811 -57.016,4.146C-14.763,-56.074 -7.239,-85.237 -7.239,-85.237C-7.239,-85.237 -7.242,-85.226 -7.235,-85.212C1.131,-65.929 7.421,-47.388 11.942,-29.604C11.589,-28.265 11.245,-26.924 10.88,-25.589C9.436,-20.223 7.498,-15.21 5.106,-10.208C0.488,-0.524 -5.421,8.528 -8.62,18.851C-8.744,19.22 -8.48,19.52 -8.124,19.58C-4.385,20.234 -1.058,16.966 1.372,14.585C5.436,10.624 9.64,6.875 13.887,3.106C15.227,1.91 16.557,0.71 17.865,-0.496C22.778,31.728 21.645,61.174 16.225,87.741C11.592,92.979 6.615,97.913 2.243,103.392C2.024,103.66 2.188,104.149 2.527,104.227C6.034,105.084 9.646,103.804 12.852,101.953C11.689,106.227 10.416,110.416 9.036,114.536C-1.638,124.764 -15.431,131.751 -26.014,142.338C-26.296,142.62 -26.254,143.162 -25.825,143.283C-20.346,144.813 -14.539,143.363 -9.344,141.46C-6.134,140.292 -3.038,138.873 0,137.307" style="fill:rgb(252,141,147);fill-rule:nonzero;"/>
                </g>
                <g transform="matrix(4.16667,0,0,4.16667,388.056,237.541)">
                    <path d="M0,197.985C-5.861,188.587 -10.784,182.239 -18.539,173.545C-24.459,135.839 -18.222,101.605 2.299,60.573C4.433,63.743 6.915,66.676 9.508,69.424C14.938,75.167 21.116,80.326 27.824,84.534C28.187,84.75 28.659,84.532 28.698,84.098C29.069,78.431 26.84,73.339 25.417,67.975C23.689,61.487 22.382,54.871 20.633,48.376C19.407,43.759 18.131,39.15 17.074,34.485C59.327,-25.735 66.851,-54.898 66.851,-54.898C66.851,-54.898 66.848,-54.887 66.854,-54.873C66.71,-52.689 52.093,119.892 7.235,252.883C-2.368,231.365 -9.607,212.012 -14.316,193.801C-8.054,196.85 0.236,198.37 0,197.985" style="fill:rgb(254,104,105);fill-rule:nonzero;"/>
                </g>
                <g transform="matrix(-4.05882,0.941837,0.941837,4.05882,728.384,564.426)">
                    <path d="M-1.049,-9.997C0.85,-7.644 2.277,-5.072 3.309,-2.231C4.283,0.451 -0.117,1.497 -1.049,-1.22C-1.896,-3.692 -2.725,-6.169 -3.58,-8.639C-4.061,-10.026 -1.949,-11.112 -1.049,-9.997" style="fill:rgb(254,104,105);fill-rule:nonzero;"/>
                </g>
                <g transform="matrix(4.16667,0,0,4.16667,731.167,607.06)">
                    <path d="M0,-7.356C-0.578,-5.415 -1.579,-3.629 -1.963,-1.625C-2.195,-0.412 -1.623,0.844 -0.365,1.19C0.752,1.497 2.218,0.812 2.449,-0.408C2.865,-2.601 2.615,-4.777 2.809,-6.976C2.953,-8.625 0.445,-8.853 0,-7.356" style="fill:rgb(254,104,105);fill-rule:nonzero;"/>
                </g>
                <g transform="matrix(4.16667,0,0,4.16667,-1142.7,597.059)">
                    <path d="M0,148.659C-22.973,180.955 -52.418,204.466 -81.494,220.029C-86.942,197.103 -90.47,176.745 -91.722,157.977C-86.133,162.134 -78.269,165.163 -78.429,164.742C-82.447,154.419 -86.108,147.269 -92.117,137.289C-90.946,99.138 -78.473,66.654 -50.703,30.136C-49.193,33.646 -47.298,36.989 -45.26,40.17C-40.987,46.819 -35.872,53.034 -30.061,58.412C-29.744,58.691 -29.24,58.564 -29.121,58.146C-27.706,52.646 -28.953,47.228 -29.357,41.694C-29.853,34.999 -29.911,28.254 -30.426,21.548C-30.775,16.785 -31.175,12.018 -31.349,7.238C21.334,-44.108 34.132,-71.37 34.132,-71.37C34.132,-71.37 34.126,-71.361 34.13,-71.346C38.778,-50.846 41.522,-31.46 42.67,-13.146C42.074,-11.897 41.488,-10.642 40.882,-9.399C38.468,-4.393 35.635,0.175 32.357,4.646C26.025,13.306 18.54,21.106 13.483,30.658C13.293,30.998 13.497,31.342 13.835,31.467C17.39,32.803 21.264,30.208 24.093,28.318C28.82,25.18 33.646,22.274 38.519,19.356C40.057,18.43 41.586,17.498 43.095,16.555C41.951,49.131 35.38,77.857 25.13,102.959C19.607,107.248 13.802,111.175 8.489,115.748C8.225,115.97 8.296,116.481 8.614,116.621C11.901,118.113 15.688,117.524 19.181,116.299C17.247,120.284 15.219,124.166 13.1,127.958C0.715,136.03 -14.134,140.34 -26.495,148.783C-26.825,149.007 -26.885,149.548 -26.485,149.746C-21.385,152.264 -15.409,151.915 -9.952,151.01C-6.58,150.456 -3.276,149.636 0,148.659" style="fill:rgb(252,141,147);fill-rule:nonzero;"/>
                </g>
                <g transform="matrix(4.16667,0,0,4.16667,-1469.49,530.046)">
                    <path d="M0,180.825C-4.019,170.502 -7.68,163.352 -13.688,153.372C-12.518,115.221 -0.044,82.737 27.726,46.219C29.235,49.729 31.131,53.072 33.169,56.253C37.441,62.902 42.557,69.117 48.368,74.495C48.685,74.774 49.188,74.647 49.308,74.229C50.723,68.729 49.476,63.311 49.071,57.777C48.576,51.082 48.518,44.337 48.003,37.631C47.653,32.868 47.254,28.101 47.08,23.321C99.763,-28.025 112.561,-55.287 112.561,-55.287C112.561,-55.287 112.555,-55.278 112.559,-55.263C112.013,-53.144 65.663,113.739 -3.065,236.112C-8.514,213.186 -12.041,192.828 -13.293,174.06C-7.704,178.217 0.16,181.246 0,180.825" style="fill:rgb(254,104,105);fill-rule:nonzero;"/>
                </g>
                <g transform="matrix(4.16667,0,0,4.16667,-1151.57,1000.73)">
                    <path d="M0,-6.98C-1.128,-5.545 -1.944,-3.656 -2.56,-1.941C-2.971,-0.797 -2.097,0.522 -0.988,0.827C0.234,1.163 1.398,0.414 1.779,-0.745C2.286,-2.285 2.791,-4.204 2.781,-5.829C2.773,-7.114 0.914,-8.143 0,-6.98" style="fill:rgb(254,104,105);fill-rule:nonzero;"/>
                </g>
                <g transform="matrix(-4.14195,-0.453161,-0.453161,4.14195,-1125.18,986.09)">
                    <path d="M-1.607,-9.255C-0.294,-7.071 1.487,-4.736 2.08,-2.231C2.542,-0.277 -0.507,1.18 -1.607,-0.593C-3.033,-2.889 -3.468,-5.902 -4.124,-8.503C-4.523,-10.087 -2.31,-10.424 -1.607,-9.255" style="fill:rgb(254,104,105);fill-rule:nonzero;"/>
                </g>
                <g transform="matrix(4.16667,0,0,4.16667,368.457,118.005)">
                    <path d="M0,297.949C-27.739,284.229 -48.632,266.211 -64.248,245.826C-63.034,246.142 -61.802,246.39 -60.605,246.751C-44.103,251.793 -32.309,249.17 -32.791,248.977C-54.552,240.114 -63.281,235.767 -78.426,224.244C-81.688,218.406 -84.602,212.444 -87.212,206.4C-84.755,207.3 -82.354,208.381 -79.994,209.309C-74.897,211.308 -69.594,213.086 -64.038,212.647C-63.628,212.617 -63.405,212.061 -63.681,211.756C-72.65,201.781 -84.285,194.607 -94.727,186.232C-107.14,147.029 -108.338,105.972 -105.831,72.417C-101.676,75.897 -96.892,78.696 -91.888,80.226C-91.452,80.367 -90.969,79.967 -91.171,79.496C-94.882,70.906 -99.533,62.755 -103.588,54.325C-103.717,54.053 -103.841,53.791 -103.97,53.519C-100.138,22.038 -93.879,0.677 -93.689,0.014L-93.684,0C-71.694,49.268 -40.62,88.592 -18.437,119.312C-18.255,134.234 -20.694,149.176 -20.392,164.154C-20.392,164.494 -19.914,164.762 -19.624,164.589C-14.943,161.908 -11.698,157.345 -9.007,152.789C-6.855,149.154 -5.021,145.341 -3.31,141.47C-1.575,144.278 0.031,146.983 1.442,149.602C19.56,183.166 34.505,227.439 0,297.949" style="fill:rgb(252,141,147);fill-rule:nonzero;"/>
                </g>
                <g transform="matrix(4.16667,0,0,4.16667,368.457,118.064)">
                    <path d="M0,297.935C-27.739,284.215 -48.632,266.197 -64.248,245.812C-63.034,246.128 -61.802,246.376 -60.605,246.737C-44.103,251.779 -32.309,249.156 -32.791,248.963C-54.552,240.1 -63.281,235.753 -78.426,224.23C-81.688,218.392 -84.602,212.43 -87.212,206.386C-84.755,207.286 -82.354,208.367 -79.994,209.295C-74.897,211.294 -69.594,213.072 -64.038,212.633C-63.628,212.603 -63.405,212.047 -63.681,211.742C-72.65,201.767 -84.285,194.593 -94.727,186.218C-107.14,147.015 -108.338,105.958 -105.831,72.403C-101.676,75.883 -96.892,78.682 -91.888,80.212C-91.452,80.353 -90.969,79.953 -91.171,79.482C-94.882,70.892 -99.533,62.741 -103.588,54.311C-103.717,54.039 -103.841,53.777 -103.97,53.505C-100.138,22.024 -93.879,0.663 -93.689,0C-93.723,1.311 -95.83,94.331 0,297.935" style="fill:rgb(254,104,105);fill-rule:nonzero;"/>
                </g>
                <g transform="matrix(4.16667,0,0,4.16667,168.88,524.07)">
                    <path d="M0,5.593C-0.614,4.052 -1.802,2.819 -2.69,1.418C-3.529,0.097 -4.187,-1.441 -5.324,-2.541C-6.315,-3.5 -7.647,-2.71 -7.805,-1.513C-8.037,0.25 -7.206,2.072 -6.47,3.627C-5.689,5.273 -4.744,7.024 -3.219,8.068C-1.722,9.093 0.706,7.362 0,5.593" style="fill:rgb(254,104,105);fill-rule:nonzero;"/>
                </g>
                <g transform="matrix(4.16667,0,0,4.16667,197.795,556.374)">
                    <path d="M0,-1.95C-0.833,-3.163 -1.548,-4.562 -2.658,-5.549C-3.498,-6.296 -4.654,-5.744 -4.759,-4.679C-4.921,-3.017 -4.194,-1.372 -3.512,0.103C-2.799,1.643 -1.881,3.381 -0.211,3.959C0.905,4.346 2.227,3.319 2.162,2.152C2.073,0.547 0.882,-0.667 0,-1.95" style="fill:rgb(254,104,105);fill-rule:nonzero;"/>
                </g>
                <g transform="matrix(4.16667,0,0,4.16667,211.625,615.903)">
                    <path d="M0,0.095C-0.454,-0.757 -1.042,-1.553 -1.646,-2.306C-2.176,-2.966 -2.804,-3.746 -3.581,-4.109C-4.514,-4.546 -5.42,-4.011 -5.521,-2.997C-5.605,-2.145 -5.257,-1.171 -4.951,-0.383C-4.602,0.52 -4.215,1.439 -3.715,2.266C-2.279,4.641 1.303,2.538 0,0.095" style="fill:rgb(254,104,105);fill-rule:nonzero;"/>
                </g>
                <g transform="matrix(4.16667,0,0,4.16667,332.662,1059.13)">
                    <path d="M0,1.379C-0.541,0.693 -1.062,-0.017 -1.514,-0.767C-1.997,-1.569 -2.258,-2.488 -2.773,-3.264C-3.535,-4.412 -5.534,-4.363 -5.879,-2.858C-6.481,-0.227 -5.07,2.825 -3.414,4.793C-2.574,5.791 -0.866,5.659 0,4.793C1.012,3.781 0.81,2.406 0,1.379" style="fill:rgb(254,104,105);fill-rule:nonzero;"/>
                </g>
            </g>
        </g>
    </g>
</svg>
