<?xml version="1.0" encoding="UTF-8" standalone="no"?>
<!DOCTYPE svg PUBLIC "-//W3C//DTD SVG 1.1//EN" "http://www.w3.org/Graphics/SVG/1.1/DTD/svg11.dtd">
<svg width="100%" height="100%" viewBox="0 0 503 469" version="1.1" xmlns="http://www.w3.org/2000/svg" xmlns:xlink="http://www.w3.org/1999/xlink" xml:space="preserve" xmlns:serif="http://www.serif.com/" style="fill-rule:evenodd;clip-rule:evenodd;stroke-linejoin:round;stroke-miterlimit:2;">
    <g transform="matrix(1,0,0,1,-111.507,-110.191)">
        <g transform="matrix(1,0,0,1,326.473,329.672)">
            <path d="M0,76.332C5.137,75.378 10.082,73.801 14.729,71.658C11.825,74.375 8.511,76.686 5.005,78.049C3.302,77.588 1.629,77.015 0,76.332M-60.649,17.364C-60.309,17.684 -59.914,17.941 -59.491,18.132C-62.011,32.105 -62.324,47.255 -53.83,59.367C-49.057,66.173 -42.59,70.029 -35.381,71.889C-34.173,72.793 -32.854,73.598 -31.41,74.287C-27.233,76.28 -22,77.353 -17.125,76.788C-16.94,76.853 -16.757,76.924 -16.571,76.984L-16.49,77.278C-16.404,77.592 -16.217,77.819 -15.978,77.977C-15.874,78.147 -15.714,78.299 -15.473,78.409C-13.718,79.21 -11.979,79.37 -10.31,79.096C-5.684,81.818 -0.635,81.924 4.159,80.447C9.581,81.913 15.298,82.289 20.921,81.448C32.505,79.716 41.391,72.395 50.057,65.09C50.657,65.694 51.467,66.092 52.39,66.185C52.825,66.228 53.323,65.752 53.275,65.309C53.157,64.218 52.455,63.144 51.468,62.659C50.995,62.094 50.43,61.632 49.729,61.498C49.36,61.428 49.042,61.71 49.123,62.093C49.126,62.108 49.133,62.123 49.136,62.139C49.032,62.28 48.969,62.451 48.98,62.652C49.011,63.186 49.155,63.678 49.374,64.123C41.062,70.751 32.047,77.264 21.306,78.962C16.949,79.651 12.537,79.561 8.258,78.78C12.707,76.536 16.733,73.082 19.714,69.348C19.839,69.191 19.956,69.028 20.079,68.871C35.024,60.148 46.106,45.377 49.369,27.563C49.832,27.607 50.291,27.596 50.642,27.573C50.931,27.553 51.146,27.422 51.287,27.24C51.83,26.918 51.919,26.083 51.349,25.771C51.288,25.616 51.163,25.481 50.943,25.417C49.769,25.073 48.598,24.701 47.412,24.392C46.548,24.166 45.924,25.459 46.77,25.875C46.903,25.941 47.04,25.999 47.175,26.062C47.087,26.415 47.178,26.807 47.548,26.999C47.759,27.108 47.974,27.197 48.191,27.275C44.643,42.633 35.61,55.808 23.294,64.474C30.767,53.433 35.584,40.39 38.306,27.445C38.43,27.491 38.556,27.533 38.682,27.573C38.715,27.612 38.751,27.643 38.782,27.685C39.07,28.064 39.504,28.048 39.841,27.84C40.184,27.89 40.531,27.915 40.879,27.912C41.756,27.903 41.923,26.857 41.31,26.383C40.518,25.771 39.496,25.405 38.489,25.296C38.464,25.288 38.438,25.281 38.412,25.272C38.264,25.158 38.074,25.114 37.902,25.149C37.699,25.115 37.493,25.091 37.282,25.088C36.406,25.077 36.077,26.281 36.82,26.729C36.947,26.807 37.078,26.878 37.209,26.949C34.237,40.306 28.744,53.119 20.97,64.399C20.275,65.407 19.512,66.419 18.693,67.417C12.208,71.158 4.982,73.717 -2.71,74.818C-2.335,74.455 -1.97,74.084 -1.623,73.703C0.441,71.433 2.306,68.949 4.009,66.351C7.749,63.292 11.12,59.816 14.118,56.012C23.021,44.714 27.89,30.966 30.913,17.041C31.317,17.163 31.757,17.223 32.111,17.089C32.821,17.047 33.39,16.267 32.759,15.618C32.694,15.551 32.625,15.49 32.557,15.426C32.36,15.085 32.037,14.816 31.666,14.738C30.979,14.308 30.207,14.013 29.408,13.871C28.727,13.75 27.95,14.445 28.405,15.144C28.424,15.172 28.445,15.196 28.464,15.223C28.499,15.415 28.606,15.602 28.818,15.739C28.85,15.759 28.885,15.774 28.916,15.793C29.159,16.06 29.427,16.3 29.73,16.498C26.863,28.805 22.342,40.777 15.014,51.159C12.877,54.187 10.501,57.048 7.9,59.687C8.667,58.213 9.394,56.726 10.071,55.232C16.396,41.296 19.227,26.207 22.059,11.261C22.775,11.423 23.429,11.376 23.797,10.873C24.638,10.959 25.368,9.772 24.433,9.327C24.141,9.187 23.844,9.066 23.544,8.954C23.521,8.932 23.501,8.907 23.478,8.885C23.007,8.458 22.443,8.464 21.868,8.488C21.397,8.404 20.921,8.361 20.439,8.358C20.171,8.277 19.902,8.198 19.634,8.112C18.839,7.856 18.422,8.711 18.711,9.296C18.739,9.543 18.859,9.779 19.075,9.904C19.413,10.1 19.997,10.446 20.647,10.751C18.052,23.38 15.194,36.03 10.475,48.061C8.107,54.096 5.195,59.96 1.574,65.348C-0.454,66.999 -3,68.936 -5.602,70.258C-5.525,70.131 -5.445,70.001 -5.376,69.884C-2.508,64.999 -0.816,59.376 0.679,53.95C4.179,41.255 5.239,28.134 4.455,15.019C4.579,15.027 4.703,15.033 4.828,15.03C5.584,15.304 6.388,15.447 7.252,15.436C8.157,15.426 8.341,14.34 7.698,13.849C7.411,13.629 7.099,13.452 6.771,13.307C6.661,13.124 6.482,12.973 6.217,12.897C6.043,12.848 5.869,12.798 5.695,12.748C4.733,12.09 3.187,12.027 2.144,11.94C1.271,11.868 0.873,13.037 1.428,13.613C1.863,14.066 2.376,14.414 2.93,14.655C3.384,26.109 2.118,37.56 -0.554,48.703C-1.777,53.808 -3.247,58.908 -5.225,63.775C-6.13,66.005 -7.203,68.192 -8.575,70.176C-9.589,69.942 -10.518,69.613 -11.386,69.215C-11.696,64.641 -12.152,60.06 -12.064,55.462C-11.93,48.417 -11.271,41.373 -10.051,34.432C-7.882,22.084 -4.88,7.616 5.376,-0.653C5.894,-0.154 6.529,0.24 7.089,0.46C7.898,0.778 8.456,-0.237 8.148,-0.885C7.411,-2.437 6.149,-3.756 4.564,-4.445C3.61,-4.86 2.831,-3.887 3.453,-3.053C3.771,-2.626 4.106,-2.218 4.452,-1.821C-6.034,6.287 -9.868,20.134 -12.236,32.616C-13.628,39.952 -14.426,47.403 -14.598,54.868C-14.688,58.828 -14.783,63.068 -14.514,67.242C-16.777,65.332 -18.388,62.741 -19.577,59.824C-21.05,53.781 -21.534,47.517 -21.278,41.309C-20.65,26.012 -15.785,11.336 -10.725,-2.98C-10.701,-2.974 -10.677,-2.971 -10.652,-2.966C-10.042,-2.755 -9.4,-2.618 -8.717,-2.563C-7.779,-2.487 -7.629,-3.725 -8.261,-4.184C-9.665,-5.207 -11.318,-5.821 -13.056,-5.918C-13.743,-5.957 -14.235,-4.948 -13.67,-4.483C-13.15,-4.056 -12.589,-3.695 -11.994,-3.418C-17.146,10.436 -22.53,24.636 -23.629,39.485C-25.237,27.61 -25.711,15.53 -22.897,3.808C-22.628,3.858 -22.356,3.898 -22.081,3.925C-21.451,3.985 -21.122,3.224 -21.378,2.731C-22.333,0.888 -24.766,0.237 -26.539,1.288C-27.178,1.666 -26.995,2.51 -26.364,2.761C-25.715,3.019 -25.058,3.243 -24.39,3.429C-27.813,16.675 -27.597,30.36 -25.524,43.817C-24.823,48.368 -24.029,54.863 -22.009,60.522C-21.861,61.122 -21.714,61.721 -21.548,62.315C-20.755,65.146 -19.724,67.916 -18.475,70.58C-20.02,70.695 -21.566,70.761 -23.104,70.766C-24.009,70.104 -24.869,69.383 -25.676,68.603C-30.412,64.026 -32.457,57.883 -33.562,51.536C-35.956,37.777 -34.23,23.615 -28.482,10.899C-28.279,10.934 -28.072,10.955 -27.864,10.953C-27.755,10.952 -27.645,10.918 -27.54,10.871C-27.515,10.877 -27.486,10.888 -27.462,10.894C-26.693,11.079 -25.965,10.082 -26.621,9.487C-26.94,9.198 -27.277,8.937 -27.624,8.695C-27.791,8.532 -27.989,8.404 -28.21,8.322C-28.926,7.895 -29.69,7.553 -30.515,7.325C-31.253,7.12 -31.73,7.892 -31.458,8.522C-31.139,9.26 -30.579,9.896 -29.897,10.334C-36.166,23.968 -38.53,39.485 -35.582,54.271C-34.343,60.485 -31.794,66.257 -27.203,70.625C-29.622,70.449 -31.998,70.1 -34.296,69.538C-39.838,65.173 -42.268,58.55 -43.807,51.588C-47.414,35.261 -48.826,17.43 -41.872,1.814C-41.431,1.957 -40.979,2.053 -40.555,2.103C-40.486,2.131 -40.419,2.163 -40.35,2.19C-40.173,2.259 -40,2.233 -39.851,2.156C-39.844,2.156 -39.835,2.157 -39.828,2.157C-39.125,2.161 -38.856,1.342 -39.267,0.845C-40.33,-0.446 -41.925,-1.148 -43.593,-1.1C-44.347,-1.077 -44.609,-0.113 -43.986,0.299C-43.956,0.319 -43.926,0.336 -43.895,0.356C-43.736,0.655 -43.511,0.912 -43.229,1.129C-51.038,18.068 -50.149,38.289 -45.357,55.976C-44.167,60.371 -42.33,64.415 -39.635,67.765C-44.506,65.673 -48.826,62.347 -52.172,57.341C-59.8,45.93 -60.054,31.614 -57.937,18.496C-57.131,18.533 -56.319,18.343 -55.628,17.855C-55.245,17.585 -55.011,16.962 -55.442,16.592C-56.687,15.524 -58.347,15.281 -59.854,15.935C-59.863,15.939 -59.867,15.947 -59.876,15.951C-60.609,15.891 -61.305,16.749 -60.649,17.364" style="fill:rgb(196,128,61);fill-rule:nonzero;"/>
        </g>
        <g transform="matrix(1,0,0,1,294.518,345.14)">
            <path d="M0,47.176C-2.013,43.998 -3.309,40.171 -4.034,36.26C-1.564,40.743 1.479,44.948 5.047,48.764C3.33,48.346 1.645,47.816 0,47.176M89.073,35.704C89.069,35.696 89.07,35.687 89.065,35.678C88.239,34.257 86.76,33.468 85.124,33.589C84.558,33.631 84.377,34.271 84.524,34.715C84.791,35.519 85.332,36.153 86.002,36.601C79.921,48.416 71.22,59.786 58.308,64.444C52.645,66.487 47.192,66.599 42.031,65.393C46.187,64.297 50.067,62.132 53.634,59.301C67.987,47.909 80.703,32.163 84.472,13.895C84.827,13.887 85.162,13.814 85.467,13.668C85.503,13.67 85.538,13.675 85.574,13.676C86.32,13.714 86.682,12.782 86.088,12.317C84.774,11.288 83.074,10.907 81.452,11.314C80.826,11.471 80.557,12.29 81.125,12.703C81.131,12.708 81.138,12.712 81.144,12.716C81.219,12.867 81.342,12.991 81.525,13.04C81.597,13.059 81.67,13.073 81.741,13.092C82.114,13.303 82.533,13.494 82.974,13.641C79.303,30.336 67.583,43.85 54.989,54.848C49.618,59.539 43.733,63.427 36.682,63.651C34.499,62.739 32.379,61.61 30.328,60.316C36.615,59.526 42.092,56.393 46.777,52.127C57.926,41.977 65.232,28.085 68.279,13.391C69.088,13.443 69.916,13.263 70.61,12.859C71.204,12.513 71.278,11.609 70.562,11.335C69.764,11.03 68.945,10.852 68.115,10.77C67.889,10.706 67.654,10.691 67.423,10.723C66.999,10.712 66.574,10.721 66.145,10.765C65.264,10.854 65.259,12.089 65.987,12.396C66.011,12.405 66.039,12.414 66.063,12.424C66.12,12.525 66.188,12.617 66.275,12.682C66.442,12.808 66.621,12.913 66.806,13.006C63.885,26.652 56.868,39.074 46.775,48.727C42.119,53.179 36.827,56.909 30.299,57.782C29.187,57.931 28.065,58.001 26.945,57.996C25.711,57.08 24.506,56.11 23.33,55.099C25.916,53.697 28.39,52.08 30.708,50.272C31.194,49.892 31.669,49.497 32.144,49.102C37.128,45.747 41.623,40.99 44.888,37.744C54.542,28.143 62.839,17.258 67.945,4.565C68.593,4.811 69.254,5.021 69.931,5.199C70.587,5.372 71.235,4.801 70.945,4.117C70.142,2.219 67.798,1.299 65.935,2.216C65.437,2.46 65.249,3.268 65.793,3.594C66.029,3.736 66.272,3.865 66.519,3.984C61.826,15.088 54.275,24.53 45.934,33.133C53.862,20.53 57.956,5.905 62.032,-8.303C62.675,-8.173 63.341,-8.13 64.013,-8.165C64.744,-8.203 64.946,-9.308 64.371,-9.684C62.914,-10.637 61.22,-11.125 59.482,-11.136C58.701,-11.14 58.088,-10.055 58.887,-9.559C59.47,-9.198 60.067,-8.928 60.685,-8.735C60.706,-8.725 60.728,-8.713 60.75,-8.703C56.326,5.822 51.532,20.52 42.959,33.205C39.48,38.353 35.373,43.107 30.602,47.097C27.912,48.739 25.079,49.868 22.123,50.062C24.817,46.863 27.257,43.394 29.534,40.153C33.826,34.043 37.607,27.572 40.841,20.842C46.343,9.391 51.476,-4.029 47.848,-16.778C48.361,-16.893 48.873,-17.022 49.383,-17.177C50.379,-17.479 50.329,-18.725 49.314,-18.957C47.631,-19.343 45.832,-19.031 44.317,-18.219C43.685,-17.88 43.532,-16.732 44.372,-16.508C44.953,-16.352 45.698,-16.292 46.411,-16.387C49.758,-3.645 43.587,9.782 38.005,21.007C34.866,27.317 31.216,33.377 27.143,39.127C24.485,42.88 21.399,46.296 18.435,49.794C17.5,49.599 16.557,49.312 15.603,48.899L15.602,48.899C15.675,46.488 16.11,44.091 16.704,41.759C18.002,36.668 19.846,31.691 21.891,26.856C26.354,16.301 32.132,6.335 39.295,-2.615C39.884,-2.48 40.503,-2.455 41.122,-2.561C41.91,-2.696 42.283,-3.874 41.539,-4.333C40.647,-4.882 39.365,-5.749 38.2,-5.79C38.03,-5.853 37.861,-5.917 37.692,-5.98C37.434,-6.077 37.2,-6.061 37.003,-5.98C36.653,-6.056 36.296,-6.099 35.935,-6.093C35.127,-6.079 34.63,-5.096 35.352,-4.551C36.041,-4.03 36.773,-3.668 37.544,-3.439C37.643,-3.363 37.746,-3.294 37.851,-3.226C29.436,6.864 22.502,18.053 17.784,30.347C15.768,35.602 13.792,41.131 13.2,46.765C13.187,46.901 13.174,47.053 13.16,47.2C11.852,44.592 10.952,41.522 10.3,38.989C10.582,32.504 11.719,26.056 13.396,19.794C16.737,7.31 21.946,-4.567 27.352,-16.272C28.057,-16.131 28.731,-16.063 29.12,-16.02C29.367,-15.993 29.604,-16.112 29.774,-16.294C30.354,-16.593 30.525,-17.529 29.734,-17.794C29.467,-17.885 29.204,-17.98 28.939,-18.074C28.55,-18.358 28.141,-18.606 27.712,-18.818C27.264,-19.178 26.814,-19.517 26.182,-19.453C26.15,-19.45 26.119,-19.442 26.087,-19.437C25.779,-19.525 25.469,-19.604 25.151,-19.665C24.133,-19.861 24.017,-18.472 24.744,-18.043C24.742,-17.419 25.24,-16.994 25.913,-16.699C19.322,-2.989 12.645,10.835 9.464,25.805C9.123,27.409 8.825,29.038 8.567,30.679C8.041,27.011 7.826,23.299 7.903,19.593C8.168,6.889 11.635,-5.431 16.631,-17.037C16.992,-17.017 17.351,-17.051 17.704,-17.121C17.741,-17.118 17.778,-17.109 17.814,-17.107C18.067,-17.092 18.264,-17.178 18.407,-17.311C18.437,-17.323 18.47,-17.329 18.5,-17.34C19.282,-17.633 19.068,-18.653 18.449,-18.96C17.722,-19.321 16.925,-19.542 16.117,-19.603C15.772,-19.761 15.353,-19.736 14.992,-19.577C14.899,-19.567 14.808,-19.559 14.716,-19.543C13.823,-19.395 13.817,-18.43 14.363,-17.975C14.57,-17.657 14.959,-17.444 15.356,-17.302C9.525,-4.301 5.284,9.654 5.744,24.031C5.899,28.872 6.549,33.67 7.745,38.351C7.572,41.454 7.6,44.559 7.914,47.612C7.967,48.124 8.04,48.639 8.126,49.154C2.589,43.702 -1.708,37.354 -4.707,30.495C-4.773,29.206 -4.787,27.938 -4.748,26.714C-4.311,13.022 -1.127,-0.551 4.409,-13.065C4.557,-13.044 4.704,-13.024 4.852,-13.011C5.716,-12.931 6.166,-14.095 5.454,-14.606C5.283,-14.729 5.104,-14.832 4.919,-14.924C4.802,-15.055 4.623,-15.132 4.436,-15.128C4.41,-15.137 4.386,-15.146 4.359,-15.154C3.484,-15.665 2.445,-15.976 1.444,-15.954C0.67,-15.936 0.184,-14.995 0.884,-14.468C1.162,-14.258 1.456,-14.073 1.762,-13.909C1.909,-13.542 2.249,-13.272 2.706,-13.407C2.757,-13.421 2.804,-13.425 2.854,-13.437C2.979,-13.394 3.104,-13.352 3.232,-13.316C-2.261,-1.282 -6.124,12.074 -6.662,25.395C-11.432,11.111 -10.883,-4.853 -4.624,-19.32C-4.402,-19.254 -4.177,-19.198 -3.941,-19.161C-3.53,-19.096 -3.224,-19.357 -3.085,-19.693C-2.939,-19.664 -2.795,-19.629 -2.648,-19.603C-1.721,-19.436 -1.456,-20.847 -2.285,-21.178C-3.423,-21.633 -4.586,-22.029 -5.736,-22.449C-5.95,-22.527 -6.131,-22.493 -6.271,-22.405C-6.916,-22.492 -7.341,-21.767 -7.095,-21.186C-7.088,-20.955 -6.993,-20.722 -6.772,-20.535C-6.504,-20.308 -6.141,-20.027 -5.742,-19.788C-13.689,-3.514 -13.536,14.951 -6.686,30.842C-6.68,31.042 -6.682,31.243 -6.674,31.443C-6.492,36.218 -5.301,41.386 -3.052,45.833C-6.959,43.922 -10.564,41.376 -13.662,38.236C-21.298,30.494 -24.688,19.903 -27.444,9.634C-27.004,9.406 -26.597,9.095 -26.255,8.684C-26.127,8.529 -26.076,8.353 -26.075,8.178C-26.063,8.168 -26.049,8.16 -26.037,8.149C-25.745,7.889 -25.834,7.473 -26.173,7.311C-26.816,7.003 -27.545,7.039 -28.262,7.213C-29.344,7.018 -30.546,7.466 -31.288,8.273C-31.59,8.601 -31.472,9.281 -31.096,9.504C-30.298,9.977 -29.41,10.136 -28.568,10.008C-25.93,21.03 -23.122,32.196 -14.827,40.465C-10.801,44.479 -5.977,47.57 -0.742,49.607C2.239,53.642 6.365,56.552 11.704,57.107C12.886,58.319 14.379,59.222 16.268,59.619C16.526,59.674 16.745,59.646 16.93,59.571C17.216,59.586 17.502,59.514 17.757,59.313L17.997,59.124C18.182,59.186 18.372,59.237 18.56,59.295C22.147,62.643 26.996,64.886 31.541,65.76C33.111,66.062 34.65,66.197 36.16,66.187C43.065,68.968 50.559,69.703 58.44,67.058C72.465,62.352 81.204,49.972 87.469,37.231C87.923,37.328 88.393,37.355 88.857,37.3C89.75,37.195 89.699,36.091 89.073,35.704" style="fill:rgb(247,168,76);fill-rule:nonzero;"/>
        </g>
        <g transform="matrix(1,0,0,1,315.36,399.686)">
            <path d="M0,183.63C-9.185,176.561 -14.423,164.894 -18.589,154.372C-22.801,143.735 -25.674,132.568 -27.24,121.239C-30.592,97.01 -28.267,72.396 -21.514,48.935C-18.184,37.367 -13.801,26.148 -8.619,15.297C-6.263,15.914 -2.24,14.295 -0.663,13.593C1.253,12.741 5.012,10.152 5.158,7.586C5.285,7.057 5.169,6.466 4.75,6.027C4.535,5.721 4.237,5.55 3.906,5.507C-0.147,6.123 -11.357,0.041 -13.372,-2.469C-13.534,-2.67 -13.923,-2.524 -14.169,-2.41C-14.41,-2.386 -14.64,-2.268 -14.771,-2.046C-17.28,2.187 -15.842,10.185 -12.158,13.885C-32.653,57.267 -40.303,107.714 -22.43,153.361C-17.864,165.02 -12.007,177.802 -1.641,185.398C-0.409,186.3 1.24,184.584 0,183.63" style="fill:rgb(24,32,71);fill-rule:nonzero;"/>
        </g>
        <g transform="matrix(1,0,0,1,526.87,335.786)">
            <path d="M0,70.778C4.633,68.363 8.9,65.408 12.718,61.999C10.735,65.447 8.242,68.627 5.288,70.956C3.524,71.013 1.758,70.954 0,70.778M-75.247,32.133C-74.827,32.34 -74.375,32.47 -73.915,32.529C-72.236,46.628 -68.104,61.207 -56.438,70.304C-49.883,75.416 -42.57,77.211 -35.133,76.881C-33.713,77.391 -32.215,77.775 -30.635,78.011C-26.058,78.696 -20.738,78.191 -16.242,76.224C-16.047,76.232 -15.851,76.247 -15.655,76.25L-15.491,76.507C-15.317,76.782 -15.072,76.945 -14.797,77.026C-14.647,77.158 -14.45,77.257 -14.188,77.291C-12.275,77.544 -10.566,77.188 -9.05,76.437C-3.83,77.687 1.029,76.312 5.181,73.496C10.795,73.312 16.371,71.999 21.502,69.549C32.072,64.505 38.429,54.904 44.578,45.383C45.329,45.785 46.22,45.929 47.129,45.748C47.558,45.662 47.896,45.061 47.72,44.651C47.287,43.642 46.303,42.821 45.217,42.646C44.599,42.243 43.923,41.967 43.214,42.045C42.84,42.085 42.619,42.447 42.808,42.79C42.815,42.804 42.826,42.817 42.834,42.83C42.776,42.995 42.766,43.178 42.836,43.367C43.021,43.868 43.303,44.297 43.643,44.658C37.633,53.429 30.917,62.293 21.144,67.06C17.179,68.993 12.934,70.197 8.612,70.703C12.211,67.255 15.051,62.775 16.809,58.332C16.882,58.146 16.946,57.956 17.019,57.769C28.757,45.055 35.033,27.689 32.941,9.699C33.397,9.606 33.833,9.461 34.161,9.337C34.432,9.233 34.599,9.045 34.682,8.829C35.106,8.363 34.946,7.538 34.31,7.407C34.207,7.276 34.048,7.184 33.819,7.187C32.595,7.201 31.366,7.189 30.143,7.239C29.25,7.276 29.031,8.695 29.962,8.846C30.109,8.87 30.257,8.885 30.403,8.906C30.423,9.269 30.625,9.617 31.035,9.693C31.269,9.736 31.5,9.758 31.731,9.769C32.831,25.493 28.048,40.734 18.806,52.624C22.722,39.88 23.513,25.998 22.327,12.824C22.46,12.831 22.592,12.834 22.725,12.835C22.768,12.863 22.811,12.882 22.854,12.913C23.24,13.192 23.65,13.049 23.911,12.752C24.254,12.699 24.593,12.622 24.925,12.517C25.761,12.252 25.614,11.202 24.89,10.929C23.953,10.575 22.869,10.524 21.874,10.715C21.848,10.714 21.82,10.715 21.794,10.715C21.618,10.649 21.425,10.662 21.27,10.746C21.065,10.772 20.862,10.809 20.659,10.868C19.818,11.114 19.856,12.361 20.698,12.573C20.842,12.61 20.987,12.64 21.134,12.67C22.2,26.312 20.696,40.172 16.562,53.232C16.192,54.399 15.758,55.59 15.268,56.784C10.16,62.259 4,66.819 -3.034,70.123C-2.781,69.666 -2.541,69.204 -2.321,68.739C-1.011,65.964 0.046,63.044 0.913,60.06C3.596,56.042 5.802,51.731 7.556,47.217C12.765,33.808 13.397,19.237 12.215,5.038C12.637,5.036 13.074,4.964 13.375,4.732C14.04,4.485 14.356,3.572 13.563,3.136C13.481,3.091 13.397,3.053 13.313,3.012C13.026,2.743 12.639,2.58 12.262,2.615C11.479,2.404 10.654,2.348 9.849,2.446C9.161,2.53 8.622,3.422 9.262,3.958C9.287,3.979 9.314,3.995 9.34,4.015C9.431,4.189 9.588,4.336 9.831,4.405C9.866,4.415 9.904,4.419 9.939,4.428C10.25,4.612 10.577,4.763 10.925,4.864C11.783,17.471 10.962,30.243 6.992,42.314C5.835,45.835 4.4,49.265 2.686,52.55C2.987,50.917 3.247,49.281 3.458,47.655C5.429,32.478 3.721,17.222 2.057,2.101C2.789,2.046 3.4,1.81 3.605,1.221C4.435,1.057 4.785,-0.291 3.761,-0.444C3.44,-0.492 3.121,-0.52 2.802,-0.54C2.773,-0.555 2.747,-0.573 2.718,-0.586C2.143,-0.857 1.605,-0.687 1.063,-0.495C0.589,-0.438 0.12,-0.34 -0.342,-0.202C-0.622,-0.2 -0.901,-0.198 -1.184,-0.201C-2.019,-0.213 -2.167,0.727 -1.72,1.201C-1.62,1.429 -1.436,1.619 -1.193,1.675C-0.813,1.764 -0.153,1.925 0.559,2.026C1.771,14.861 2.739,27.794 1.746,40.679C1.247,47.143 0.179,53.603 -1.708,59.814C-3.165,61.986 -5.032,64.583 -7.134,66.608C-7.097,66.465 -7.059,66.318 -7.026,66.184C-5.714,60.674 -5.741,54.803 -5.898,49.177C-6.267,36.013 -9.091,23.156 -13.677,10.845C-13.557,10.816 -13.436,10.785 -13.317,10.746C-12.515,10.786 -11.704,10.688 -10.881,10.425C-10.018,10.151 -10.16,9.058 -10.918,8.777C-11.257,8.651 -11.608,8.572 -11.963,8.529C-12.123,8.386 -12.337,8.295 -12.613,8.3C-12.794,8.303 -12.975,8.307 -13.155,8.31C-14.268,7.962 -15.766,8.354 -16.788,8.576C-17.644,8.762 -17.683,9.997 -16.983,10.386C-16.435,10.692 -15.843,10.873 -15.242,10.943C-11.458,21.762 -9.317,33.082 -8.612,44.52C-8.289,49.759 -8.203,55.066 -8.669,60.299C-8.883,62.696 -9.27,65.102 -10.001,67.4C-11.038,67.473 -12.023,67.43 -12.97,67.304C-14.604,63.02 -16.381,58.773 -17.642,54.351C-19.574,47.574 -21.005,40.645 -21.869,33.652C-23.408,21.21 -24.77,6.496 -17.382,-4.411C-16.741,-4.086 -16.018,-3.895 -15.418,-3.848C-14.552,-3.781 -14.314,-4.914 -14.799,-5.445C-15.958,-6.713 -17.551,-7.605 -19.268,-7.801C-20.302,-7.918 -20.762,-6.76 -19.922,-6.143C-19.493,-5.829 -19.054,-5.537 -18.606,-5.258C-26.263,5.563 -25.877,19.926 -24.49,32.554C-23.675,39.976 -22.257,47.336 -20.238,54.524C-19.166,58.338 -18.017,62.419 -16.538,66.332C-19.262,65.167 -21.56,63.161 -23.55,60.72C-26.727,55.372 -29.021,49.523 -30.594,43.513C-34.468,28.7 -34.109,13.244 -33.458,-1.926C-33.435,-1.928 -33.41,-1.932 -33.386,-1.934C-32.74,-1.911 -32.086,-1.967 -31.417,-2.115C-30.498,-2.317 -30.717,-3.544 -31.455,-3.799C-33.098,-4.366 -34.857,-4.469 -36.548,-4.054C-37.216,-3.889 -37.392,-2.781 -36.715,-2.502C-36.093,-2.245 -35.45,-2.065 -34.801,-1.974C-35.675,12.782 -36.669,27.935 -33.375,42.456C-38.387,31.571 -42.374,20.158 -43.113,8.126C-42.841,8.095 -42.569,8.054 -42.299,7.999C-41.678,7.872 -41.587,7.048 -41.975,6.652C-43.428,5.168 -45.944,5.258 -47.333,6.782C-47.833,7.33 -47.411,8.084 -46.734,8.139C-46.038,8.195 -45.344,8.217 -44.651,8.2C-44.05,21.868 -39.839,34.891 -33.92,47.153C-31.918,51.299 -29.259,57.278 -25.671,62.098C-25.354,62.629 -25.038,63.159 -24.705,63.679C-23.119,66.154 -21.323,68.501 -19.349,70.682C-20.794,71.245 -22.252,71.76 -23.722,72.215C-24.779,71.847 -25.813,71.409 -26.812,70.899C-32.682,67.908 -36.435,62.632 -39.348,56.886C-45.663,44.429 -48.156,30.382 -46.379,16.54C-46.174,16.515 -45.971,16.474 -45.771,16.411C-45.668,16.379 -45.573,16.314 -45.486,16.238C-45.46,16.237 -45.43,16.238 -45.404,16.237C-44.616,16.189 -44.211,15.023 -45.012,14.646C-45.402,14.463 -45.801,14.313 -46.203,14.182C-46.411,14.075 -46.638,14.011 -46.872,13.997C-47.683,13.798 -48.513,13.695 -49.368,13.717C-50.135,13.737 -50.364,14.615 -49.92,15.138C-49.398,15.751 -48.678,16.195 -47.897,16.415C-49.903,31.286 -47.624,46.816 -40.479,60.093C-37.476,65.672 -33.35,70.446 -27.683,73.279C-30.047,73.819 -32.422,74.179 -34.783,74.315C-41.359,71.762 -45.62,66.14 -49.129,59.932C-57.355,45.376 -63.922,28.737 -61.841,11.771C-61.377,11.778 -60.918,11.738 -60.496,11.662C-60.423,11.669 -60.35,11.679 -60.275,11.685C-60.086,11.699 -59.928,11.624 -59.808,11.506C-59.801,11.504 -59.793,11.502 -59.786,11.5C-59.112,11.299 -59.095,10.437 -59.633,10.081C-61.027,9.159 -62.759,8.953 -64.339,9.488C-65.054,9.73 -65.022,10.728 -64.306,10.941C-64.271,10.951 -64.236,10.958 -64.202,10.968C-63.963,11.207 -63.671,11.387 -63.338,11.512C-65.851,29.995 -59.085,49.071 -49.328,64.583C-46.904,68.437 -43.964,71.767 -40.407,74.182C-45.677,73.606 -50.781,71.69 -55.445,67.882C-66.077,59.201 -70.509,45.586 -72.321,32.423C-71.541,32.222 -70.82,31.803 -70.302,31.134C-70.016,30.764 -69.974,30.1 -70.493,29.872C-71.996,29.215 -73.654,29.468 -74.904,30.534C-74.912,30.541 -74.914,30.549 -74.921,30.556C-75.64,30.714 -76.054,31.737 -75.247,32.133" style="fill:rgb(196,128,61);fill-rule:nonzero;"/>
        </g>
        <g transform="matrix(1,0,0,1,492.309,334.119)">
            <path d="M0,68.705C-2.854,66.255 -5.213,62.975 -7.051,59.447C-3.378,63.012 0.763,66.142 5.291,68.747C3.527,68.85 1.76,68.835 0,68.705M81.82,31.676C81.813,31.669 81.813,31.66 81.805,31.653C80.6,30.536 78.954,30.214 77.425,30.808C76.896,31.014 76.91,31.679 77.181,32.06C77.672,32.751 78.374,33.199 79.146,33.432C76.787,46.509 71.793,59.928 60.81,68.159C55.991,71.769 50.811,73.472 45.522,73.828C49.176,71.563 52.253,68.358 54.835,64.608C65.228,49.516 72.78,30.738 71.039,12.166C71.377,12.056 71.676,11.888 71.925,11.659C71.96,11.65 71.995,11.644 72.03,11.635C72.754,11.453 72.827,10.457 72.123,10.185C70.566,9.585 68.829,9.719 67.396,10.583C66.845,10.916 66.826,11.777 67.49,12.007C67.497,12.009 67.506,12.011 67.513,12.013C67.628,12.136 67.782,12.218 67.972,12.211C68.046,12.209 68.119,12.202 68.193,12.198C68.611,12.291 69.069,12.351 69.533,12.362C70.906,29.401 63.653,45.752 54.828,59.954C51.064,66.01 46.574,71.45 39.897,73.727C37.543,73.494 35.186,73.035 32.846,72.397C38.626,69.802 42.947,65.204 46.18,59.754C53.871,46.787 56.793,31.364 55.408,16.423C56.196,16.235 56.936,15.822 57.481,15.231C57.948,14.727 57.754,13.841 56.99,13.788C56.137,13.73 55.302,13.799 54.484,13.964C54.249,13.969 54.021,14.023 53.809,14.122C53.4,14.235 52.996,14.369 52.599,14.536C51.782,14.878 52.139,16.061 52.925,16.141C52.95,16.143 52.98,16.143 53.007,16.145C53.09,16.225 53.183,16.294 53.284,16.331C53.48,16.402 53.683,16.451 53.886,16.485C55.086,30.388 52.011,44.32 45.183,56.503C42.033,62.123 38.063,67.238 32.076,69.983C31.057,70.451 30.005,70.846 28.933,71.168C27.483,70.654 26.048,70.078 24.628,69.456C26.69,67.359 28.583,65.089 30.271,62.681C30.625,62.176 30.963,61.659 31.301,61.143C35.086,56.476 37.992,50.613 40.164,46.553C46.588,34.548 51.337,21.711 52.507,8.08C53.197,8.126 53.892,8.133 54.591,8.105C55.269,8.079 55.722,7.343 55.245,6.774C53.921,5.195 51.41,5 49.896,6.421C49.492,6.802 49.549,7.629 50.164,7.781C50.432,7.848 50.702,7.9 50.973,7.942C49.733,19.933 45.275,31.17 39.815,41.838C43.71,27.466 43.347,12.285 43.088,-2.495C43.74,-2.558 44.39,-2.712 45.022,-2.942C45.71,-3.193 45.58,-4.308 44.92,-4.5C43.248,-4.985 41.484,-4.955 39.82,-4.457C39.072,-4.233 38.803,-3.016 39.712,-2.776C40.375,-2.601 41.025,-2.518 41.672,-2.514C41.696,-2.511 41.72,-2.505 41.744,-2.503C41.764,12.682 41.479,28.139 36.992,42.777C35.172,48.718 32.635,54.465 29.239,59.677C27.148,62.034 24.77,63.942 22,64.992C23.641,61.144 24.959,57.114 26.187,53.348C28.504,46.25 30.227,38.956 31.35,31.575C33.261,19.015 34.243,4.68 27.044,-6.449C27.502,-6.71 27.953,-6.983 28.396,-7.28C29.26,-7.86 28.848,-9.037 27.81,-8.962C26.086,-8.838 24.458,-8.013 23.247,-6.795C22.741,-6.285 22.931,-5.143 23.8,-5.174C24.4,-5.195 25.132,-5.356 25.785,-5.654C32.713,5.55 30.74,20.195 28.686,32.562C27.531,39.514 25.813,46.377 23.602,53.067C22.157,57.434 20.206,61.603 18.395,65.815C17.443,65.902 16.457,65.904 15.424,65.788C14.788,63.461 14.503,61.041 14.389,58.638C14.141,53.39 14.447,48.091 14.988,42.87C16.168,31.472 18.777,20.25 23.009,9.597C23.611,9.553 24.211,9.396 24.771,9.113C25.486,8.754 25.499,7.518 24.652,7.297C23.64,7.033 22.159,6.579 21.033,6.88C20.853,6.87 20.673,6.859 20.492,6.848C20.217,6.83 19.998,6.913 19.833,7.049C19.477,7.078 19.122,7.142 18.778,7.253C18.01,7.503 17.822,8.588 18.673,8.899C19.483,9.195 20.29,9.327 21.094,9.32C21.211,9.365 21.33,9.4 21.449,9.434C16.354,21.545 12.998,34.273 12.083,47.41C11.692,53.024 11.42,58.89 12.503,64.45C12.529,64.584 12.562,64.733 12.592,64.877C10.577,62.767 8.819,60.095 7.454,57.863C5.827,51.58 5.028,45.081 4.799,38.602C4.343,25.686 5.848,12.805 7.593,0.031C8.309,-0.04 8.974,-0.173 9.357,-0.246C9.603,-0.293 9.794,-0.475 9.903,-0.699C10.37,-1.154 10.26,-2.099 9.426,-2.122C9.144,-2.129 8.864,-2.144 8.584,-2.157C8.129,-2.314 7.665,-2.432 7.193,-2.509C6.659,-2.723 6.129,-2.915 5.544,-2.669C5.515,-2.656 5.486,-2.64 5.458,-2.626C5.138,-2.62 4.817,-2.604 4.496,-2.569C3.466,-2.46 3.761,-1.098 4.582,-0.899C4.763,-0.302 5.363,-0.042 6.093,0.044C3.801,15.082 1.46,30.254 2.798,45.5C2.941,47.134 3.133,48.778 3.366,50.423C1.79,47.07 0.499,43.583 -0.512,40.017C-3.976,27.791 -4.265,14.996 -2.883,2.435C-2.531,2.35 -2.198,2.212 -1.881,2.041C-1.845,2.034 -1.807,2.031 -1.771,2.022C-1.524,1.963 -1.362,1.824 -1.265,1.654C-1.238,1.634 -1.21,1.619 -1.184,1.599C-0.521,1.09 -1.024,0.178 -1.707,0.065C-2.508,-0.067 -3.334,-0.045 -4.125,0.133C-4.5,0.083 -4.895,0.229 -5.193,0.486C-5.278,0.523 -5.364,0.558 -5.447,0.6C-6.258,1.002 -5.98,1.927 -5.325,2.202C-5.034,2.446 -4.601,2.536 -4.179,2.556C-5.951,16.694 -5.925,31.278 -1.278,44.892C0.286,49.476 2.312,53.874 4.824,58C5.567,61.018 6.502,63.979 7.695,66.806C7.896,67.28 8.117,67.752 8.35,68.219C1.46,64.625 -4.506,59.812 -9.381,54.13C-9.821,52.917 -10.205,51.709 -10.526,50.527C-14.114,37.306 -15.04,23.396 -13.407,9.81C-13.261,9.787 -13.113,9.763 -12.969,9.732C-12.118,9.556 -12.028,8.31 -12.859,8.03C-13.059,7.963 -13.261,7.917 -13.464,7.883C-13.614,7.792 -13.808,7.771 -13.985,7.829C-14.013,7.829 -14.039,7.826 -14.066,7.826C-15.053,7.594 -16.138,7.6 -17.088,7.914C-17.823,8.158 -18.013,9.201 -17.189,9.5C-16.862,9.619 -16.526,9.71 -16.186,9.777C-15.938,10.085 -15.533,10.244 -15.136,9.981C-15.092,9.953 -15.048,9.935 -15.004,9.909C-14.872,9.914 -14.739,9.916 -14.606,9.914C-16.339,23.028 -16.125,36.931 -12.743,49.827C-21.482,37.562 -25.628,22.136 -23.875,6.471C-23.645,6.47 -23.412,6.457 -23.177,6.424C-22.764,6.365 -22.547,6.026 -22.513,5.664C-22.365,5.65 -22.217,5.641 -22.069,5.623C-21.133,5.511 -21.293,4.084 -22.183,4.01C-23.403,3.908 -24.631,3.87 -25.854,3.805C-26.082,3.792 -26.245,3.877 -26.354,4.004C-26.995,4.108 -27.188,4.926 -26.783,5.409C-26.71,5.628 -26.551,5.824 -26.285,5.938C-25.962,6.076 -25.533,6.239 -25.082,6.351C-27.92,24.238 -22.371,41.851 -11.171,55.041C-11.106,55.231 -11.051,55.424 -10.984,55.613C-9.413,60.125 -6.763,64.719 -3.311,68.313C-7.606,67.629 -11.799,66.249 -15.679,64.153C-25.246,58.984 -31.587,49.848 -37.227,40.835C-36.872,40.488 -36.573,40.072 -36.367,39.579C-36.29,39.393 -36.293,39.209 -36.344,39.042C-36.335,39.029 -36.323,39.017 -36.315,39.003C-36.112,38.669 -36.318,38.297 -36.689,38.242C-37.396,38.135 -38.082,38.382 -38.716,38.759C-39.809,38.889 -40.826,39.668 -41.301,40.658C-41.493,41.06 -41.181,41.675 -40.756,41.778C-39.854,41.997 -38.959,41.891 -38.192,41.521C-32.443,51.289 -26.492,61.145 -16.142,66.625C-11.116,69.286 -5.6,70.83 0.002,71.247C4.033,74.233 8.831,75.809 14.098,74.778C15.582,75.591 17.274,76.017 19.196,75.844C19.46,75.821 19.661,75.73 19.815,75.604C20.094,75.535 20.346,75.383 20.531,75.116L20.705,74.865C20.9,74.871 21.098,74.864 21.293,74.864C25.704,77.016 30.997,77.742 35.599,77.248C37.188,77.078 38.7,76.757 40.14,76.305C47.558,76.945 54.938,75.455 61.7,70.62C73.734,62.017 78.47,47.622 80.732,33.605C81.195,33.565 81.652,33.454 82.08,33.265C82.903,32.903 82.532,31.863 81.82,31.676" style="fill:rgb(247,168,76);fill-rule:nonzero;"/>
        </g>
        <g transform="matrix(1,0,0,1,568.118,407.853)">
            <path d="M0,171.516C-10.852,167.443 -19.273,157.82 -26.336,148.977C-33.475,140.037 -39.489,130.2 -44.302,119.825C-54.595,97.636 -59.572,73.418 -59.979,49.008C-60.18,36.973 -59.27,24.962 -57.49,13.07C-55.056,12.971 -51.684,10.245 -50.38,9.113C-48.798,7.738 -45.96,4.162 -46.571,1.665C-46.605,1.122 -46.889,0.591 -47.418,0.294C-47.713,0.064 -48.048,-0.012 -48.377,0.044C-52.073,1.819 -64.571,-0.717 -67.232,-2.528C-67.446,-2.673 -67.775,-2.42 -67.978,-2.238C-68.201,-2.145 -68.386,-1.965 -68.446,-1.715C-69.607,3.067 -65.892,10.295 -61.287,12.755C-68.193,60.235 -60.749,110.712 -30.304,149.134C-22.527,158.947 -13.187,169.456 -1.052,173.687C0.39,174.189 1.465,172.066 0,171.516" style="fill:rgb(24,32,71);fill-rule:nonzero;"/>
        </g>
        <g transform="matrix(1,0,0,1,154.639,338.432)">
            <path d="M0,71.134C-2.954,68.805 -5.447,65.625 -7.43,62.177C-3.612,65.586 0.655,68.541 5.288,70.956C3.53,71.132 1.764,71.192 0,71.134M80.21,30.735C80.202,30.728 80.201,30.719 80.193,30.713C78.942,29.647 77.284,29.393 75.781,30.05C75.262,30.278 75.304,30.943 75.59,31.312C76.108,31.982 76.829,32.401 77.609,32.601C75.797,45.764 71.366,59.379 60.733,68.06C56.069,71.867 50.965,73.784 45.695,74.36C49.252,71.946 52.192,68.615 54.616,64.761C64.373,49.249 71.139,30.173 68.627,11.691C68.96,11.566 69.251,11.385 69.49,11.147C69.524,11.137 69.56,11.129 69.595,11.118C70.311,10.906 70.342,9.907 69.627,9.666C68.047,9.131 66.316,9.337 64.921,10.26C64.384,10.615 64.4,11.477 65.074,11.678C65.081,11.681 65.089,11.682 65.096,11.684C65.217,11.802 65.374,11.877 65.563,11.863C65.638,11.858 65.711,11.847 65.784,11.84C66.206,11.916 66.665,11.956 67.13,11.948C69.21,28.915 62.644,45.554 54.417,60.111C50.908,66.319 46.648,71.941 40.071,74.493C37.71,74.358 35.335,73.996 32.971,73.457C38.639,70.624 42.765,65.851 45.768,60.271C52.912,46.994 55.191,31.464 53.186,16.593C53.966,16.373 54.687,15.929 55.208,15.317C55.653,14.793 55.423,13.915 54.656,13.896C53.802,13.873 52.971,13.976 52.16,14.175C51.926,14.19 51.699,14.253 51.491,14.361C51.089,14.49 50.69,14.641 50.301,14.824C49.499,15.2 49.904,16.367 50.693,16.415C50.718,16.416 50.748,16.415 50.774,16.416C50.861,16.492 50.957,16.557 51.061,16.589C51.259,16.653 51.463,16.693 51.667,16.719C53.444,30.56 50.951,44.608 44.636,57.064C41.723,62.811 37.97,68.086 32.102,71.077C31.102,71.587 30.068,72.026 29.01,72.393C27.541,71.939 26.082,71.423 24.638,70.861C26.611,68.68 28.407,66.332 29.993,63.857C30.326,63.337 30.643,62.807 30.959,62.277C34.547,57.456 37.207,51.478 39.208,47.331C45.127,35.07 49.338,22.046 49.939,8.378C50.632,8.396 51.326,8.374 52.022,8.317C52.699,8.262 53.121,7.508 52.621,6.96C51.232,5.437 48.717,5.347 47.264,6.829C46.875,7.226 46.966,8.05 47.587,8.177C47.857,8.233 48.129,8.274 48.401,8.304C47.662,20.336 43.676,31.749 38.663,42.634C41.957,28.113 40.963,12.96 40.09,-1.796C40.739,-1.887 41.382,-2.067 42.003,-2.323C42.68,-2.602 42.505,-3.712 41.836,-3.876C40.146,-4.291 38.386,-4.187 36.743,-3.621C36.005,-3.366 35.787,-2.138 36.705,-1.936C37.374,-1.789 38.028,-1.733 38.674,-1.756C38.698,-1.754 38.723,-1.75 38.747,-1.748C39.397,13.422 39.757,28.879 35.882,43.691C34.31,49.701 32.015,55.55 28.839,60.898C26.848,63.34 24.55,65.346 21.826,66.51C23.305,62.597 24.455,58.516 25.526,54.701C27.546,47.514 28.964,40.155 29.778,32.733C31.166,20.104 31.551,5.741 23.896,-5.08C24.342,-5.359 24.781,-5.65 25.21,-5.966C26.05,-6.582 25.59,-7.74 24.556,-7.622C22.839,-7.427 21.246,-6.535 20.087,-5.266C19.603,-4.736 19.84,-3.603 20.706,-3.671C21.307,-3.718 22.029,-3.907 22.67,-4.233C30.058,6.674 28.696,21.388 27.158,33.829C26.293,40.823 24.862,47.752 22.93,54.529C21.669,58.951 19.893,63.198 18.258,67.482C17.312,67.609 16.326,67.651 15.289,67.578C14.558,65.28 14.172,62.874 13.958,60.478C13.491,55.244 13.578,49.938 13.9,44.698C14.605,33.261 16.746,21.941 20.531,11.12C21.131,11.051 21.723,10.869 22.271,10.564C22.971,10.175 22.932,8.94 22.077,8.754C21.054,8.532 19.556,8.14 18.443,8.488C18.263,8.485 18.082,8.482 17.901,8.478C17.626,8.473 17.411,8.565 17.252,8.707C16.896,8.75 16.545,8.829 16.206,8.955C15.449,9.237 15.307,10.328 16.169,10.604C16.992,10.865 17.803,10.964 18.605,10.924C18.725,10.963 18.845,10.993 18.965,11.023C14.379,23.334 11.555,36.192 11.187,49.355C11.029,54.981 11.002,60.852 12.315,66.363C12.347,66.495 12.386,66.643 12.422,66.786C10.321,64.761 8.453,62.164 6.996,59.992C5.109,53.781 4.041,47.322 3.543,40.858C2.549,27.972 3.519,15.039 4.729,2.204C5.441,2.103 6.102,1.943 6.481,1.854C6.725,1.797 6.908,1.607 7.008,1.379C7.456,0.905 7.307,-0.035 6.473,-0.023C6.19,-0.019 5.91,-0.022 5.63,-0.024C5.168,-0.161 4.699,-0.261 4.225,-0.317C3.683,-0.509 3.146,-0.679 2.57,-0.408C2.542,-0.394 2.515,-0.377 2.486,-0.362C2.167,-0.343 1.848,-0.313 1.528,-0.265C0.503,-0.113 0.854,1.236 1.683,1.4C1.888,1.988 2.499,2.224 3.231,2.28C1.567,17.4 -0.141,32.655 1.83,47.833C2.042,49.459 2.302,51.095 2.603,52.728C0.889,49.444 -0.547,46.013 -1.704,42.492C-5.674,30.421 -6.495,17.649 -5.637,5.042C-5.288,4.942 -4.962,4.79 -4.651,4.607C-4.616,4.597 -4.578,4.593 -4.543,4.583C-4.299,4.514 -4.143,4.367 -4.052,4.194C-4.026,4.173 -3.999,4.156 -3.974,4.136C-3.333,3.6 -3.873,2.708 -4.561,2.624C-5.365,2.526 -6.19,2.582 -6.973,2.793C-7.351,2.758 -7.738,2.921 -8.025,3.191C-8.109,3.231 -8.193,3.269 -8.275,3.314C-9.067,3.75 -8.752,4.662 -8.087,4.91C-7.786,5.142 -7.349,5.214 -6.926,5.216C-8.109,19.415 -7.477,33.987 -2.268,47.395C-0.514,51.909 1.692,56.22 4.375,60.238C5.243,63.222 6.299,66.142 7.609,68.917C7.829,69.383 8.07,69.844 8.322,70.301C1.288,66.997 -4.872,62.437 -9.979,56.962C-10.47,55.769 -10.903,54.577 -11.273,53.41C-15.408,40.35 -16.911,26.49 -15.845,12.848C-15.699,12.819 -15.554,12.788 -15.41,12.752C-14.568,12.54 -14.53,11.292 -15.371,11.047C-15.573,10.988 -15.777,10.95 -15.981,10.924C-16.136,10.84 -16.33,10.827 -16.506,10.893C-16.532,10.893 -16.559,10.892 -16.586,10.893C-17.581,10.702 -18.665,10.753 -19.601,11.107C-20.326,11.381 -20.472,12.43 -19.637,12.696C-19.305,12.8 -18.966,12.877 -18.623,12.93C-18.361,13.228 -17.951,13.369 -17.565,13.091C-17.522,13.061 -17.479,13.041 -17.437,13.014C-17.304,13.013 -17.172,13.009 -17.039,13.002C-18.225,26.176 -17.433,40.058 -13.517,52.802C-22.759,40.911 -27.543,25.671 -26.442,9.947C-26.212,9.936 -25.98,9.914 -25.746,9.87C-25.337,9.795 -25.135,9.446 -25.115,9.084C-24.968,9.064 -24.82,9.048 -24.674,9.025C-23.743,8.874 -23.962,7.454 -24.854,7.417C-26.078,7.366 -27.307,7.379 -28.531,7.365C-28.76,7.363 -28.919,7.454 -29.021,7.585C-29.658,7.716 -29.817,8.541 -29.393,9.007C-29.31,9.223 -29.144,9.411 -28.873,9.515C-28.544,9.639 -28.108,9.784 -27.653,9.877C-29.745,27.866 -23.469,45.234 -11.729,57.947C-11.658,58.134 -11.594,58.324 -11.52,58.51C-9.763,62.953 -6.923,67.433 -3.324,70.881C-7.646,70.376 -11.891,69.172 -15.855,67.238C-25.629,62.471 -32.344,53.607 -38.354,44.836C-38.014,44.475 -37.732,44.047 -37.548,43.545C-37.478,43.356 -37.488,43.174 -37.546,43.009C-37.538,42.994 -37.527,42.983 -37.52,42.968C-37.331,42.626 -37.552,42.263 -37.925,42.223C-38.635,42.146 -39.311,42.421 -39.928,42.824C-41.014,42.999 -41.999,43.821 -42.432,44.829C-42.607,45.238 -42.27,45.84 -41.841,45.926C-40.932,46.108 -40.041,45.963 -39.29,45.562C-33.141,55.082 -26.784,64.683 -16.214,69.728C-11.083,72.177 -5.507,73.49 0.107,73.674C4.26,76.489 9.118,77.864 14.338,76.615C15.854,77.365 17.563,77.722 19.477,77.469C19.738,77.435 19.936,77.336 20.085,77.203C20.36,77.122 20.605,76.96 20.78,76.686L20.943,76.428C21.139,76.425 21.335,76.41 21.53,76.403C26.026,78.368 31.346,78.874 35.923,78.19C37.504,77.953 39.001,77.57 40.421,77.059C47.858,77.389 55.171,75.594 61.727,70.482C73.392,61.385 77.524,46.806 79.203,32.707C79.663,32.649 80.116,32.518 80.535,32.312C81.343,31.915 80.929,30.892 80.21,30.735" style="fill:rgb(196,128,61);fill-rule:nonzero;"/>
        </g>
        <g transform="matrix(1,0,0,1,189.198,336.901)">
            <path d="M0,68.79C4.528,66.185 8.669,63.054 12.342,59.489C10.504,63.017 8.146,66.297 5.291,68.747C3.531,68.878 1.764,68.893 0,68.79M-76.789,33.308C-76.361,33.496 -75.904,33.607 -75.441,33.647C-73.179,47.664 -68.443,62.059 -56.409,70.662C-49.646,75.498 -42.266,76.987 -34.849,76.348C-33.408,76.799 -31.896,77.12 -30.308,77.291C-25.706,77.784 -20.412,77.058 -16.002,74.906C-15.806,74.906 -15.609,74.913 -15.414,74.907L-15.24,75.158C-15.055,75.425 -14.803,75.577 -14.524,75.646C-14.37,75.773 -14.169,75.863 -13.905,75.887C-11.983,76.06 -10.291,75.633 -8.807,74.82C-3.539,75.852 1.258,74.275 5.289,71.289C10.891,70.872 16.408,69.328 21.433,66.668C31.784,61.187 37.735,51.332 43.483,41.563C44.25,41.933 45.146,42.04 46.048,41.821C46.473,41.718 46.784,41.103 46.592,40.7C46.118,39.711 45.1,38.932 44.007,38.801C43.373,38.425 42.687,38.178 41.98,38.284C41.609,38.34 41.403,38.711 41.606,39.046C41.615,39.06 41.626,39.071 41.635,39.085C41.584,39.252 41.581,39.435 41.658,39.621C41.864,40.114 42.163,40.53 42.518,40.877C36.878,49.891 30.537,59.026 20.971,64.195C17.09,66.292 12.897,67.672 8.602,68.356C12.054,64.762 14.704,60.168 16.276,55.655C16.342,55.466 16.397,55.273 16.462,55.084C27.662,41.894 33.211,24.28 30.373,6.394C30.824,6.281 31.253,6.118 31.576,5.98C31.842,5.866 32.001,5.671 32.075,5.452C32.479,4.969 32.286,4.15 31.645,4.046C31.536,3.92 31.373,3.835 31.146,3.847C29.923,3.912 28.694,3.95 27.474,4.052C26.584,4.126 26.424,5.554 27.36,5.665C27.509,5.683 27.656,5.692 27.804,5.706C27.838,6.068 28.055,6.408 28.468,6.466C28.703,6.5 28.936,6.512 29.166,6.514C30.919,22.179 26.773,37.604 18.034,49.869C21.417,36.973 21.63,23.07 19.897,9.957C20.03,9.959 20.163,9.956 20.296,9.952C20.339,9.977 20.383,9.995 20.427,10.024C20.825,10.286 21.229,10.127 21.478,9.819C21.817,9.752 22.153,9.661 22.48,9.542C23.304,9.243 23.114,8.2 22.379,7.957C21.429,7.643 20.344,7.637 19.357,7.869C19.33,7.869 19.304,7.871 19.277,7.872C19.1,7.813 18.905,7.834 18.755,7.925C18.552,7.96 18.35,8.005 18.15,8.072C17.319,8.353 17.409,9.598 18.26,9.774C18.405,9.805 18.552,9.829 18.698,9.852C20.331,23.438 19.405,37.349 15.817,50.57C15.497,51.752 15.112,52.96 14.672,54.173C9.797,59.855 3.831,64.668 -3.059,68.262C-2.826,67.794 -2.604,67.323 -2.404,66.849C-1.211,64.021 -0.276,61.06 0.467,58.043C2.979,53.917 5.005,49.518 6.569,44.935C11.216,31.32 11.243,16.736 9.47,2.598C9.892,2.578 10.326,2.489 10.616,2.245C11.271,1.97 11.549,1.045 10.738,0.642C10.655,0.601 10.569,0.565 10.484,0.528C10.186,0.271 9.791,0.125 9.416,0.176C8.625,-0.003 7.799,-0.024 6.998,0.107C6.315,0.22 5.812,1.133 6.475,1.642C6.501,1.661 6.529,1.677 6.556,1.696C6.653,1.866 6.816,2.006 7.062,2.065C7.098,2.073 7.136,2.076 7.172,2.084C7.49,2.255 7.822,2.392 8.175,2.477C9.557,15.038 9.267,27.833 5.803,40.06C4.792,43.625 3.501,47.112 1.925,50.466C2.158,48.821 2.35,47.177 2.493,45.543C3.831,30.297 1.49,15.125 -0.802,0.086C-0.072,0.001 0.529,-0.26 0.709,-0.857C1.531,-1.056 1.826,-2.417 0.795,-2.527C0.474,-2.562 0.153,-2.577 -0.167,-2.583C-0.195,-2.598 -0.223,-2.614 -0.252,-2.626C-0.838,-2.872 -1.367,-2.681 -1.901,-2.467C-2.373,-2.39 -2.838,-2.272 -3.293,-2.115C-3.573,-2.102 -3.853,-2.087 -4.135,-2.079C-4.969,-2.057 -5.079,-1.111 -4.612,-0.656C-4.503,-0.433 -4.311,-0.25 -4.066,-0.203C-3.683,-0.131 -3.017,0.002 -2.302,0.073C-0.557,12.848 0.949,25.728 0.492,38.644C0.264,45.123 -0.536,51.622 -2.163,57.906C-3.527,60.137 -5.286,62.81 -7.301,64.92C-7.271,64.775 -7.238,64.626 -7.212,64.492C-6.129,58.932 -6.4,53.067 -6.792,47.452C-7.707,34.315 -11.063,21.587 -16.157,9.477C-16.038,9.442 -15.919,9.407 -15.803,9.362C-14.998,9.37 -14.192,9.238 -13.381,8.941C-12.53,8.631 -12.719,7.546 -13.487,7.296C-13.831,7.184 -14.186,7.12 -14.542,7.092C-14.707,6.956 -14.925,6.873 -15.201,6.89C-15.381,6.901 -15.562,6.912 -15.742,6.923C-16.868,6.621 -18.349,7.075 -19.36,7.34C-20.207,7.561 -20.195,8.796 -19.48,9.156C-18.92,9.438 -18.32,9.596 -17.718,9.64C-13.486,20.293 -10.877,31.514 -9.697,42.912C-9.156,48.134 -8.85,53.433 -9.098,58.681C-9.212,61.084 -9.497,63.504 -10.133,65.83C-11.166,65.946 -12.152,65.944 -13.103,65.857C-14.914,61.645 -16.866,57.476 -18.31,53.109C-20.522,46.42 -22.24,39.557 -23.395,32.604C-25.449,20.237 -27.422,5.593 -20.494,-5.612C-19.84,-5.314 -19.109,-5.153 -18.509,-5.132C-17.64,-5.101 -17.45,-6.242 -17.956,-6.752C-19.166,-7.971 -20.795,-8.796 -22.519,-8.92C-23.557,-8.994 -23.969,-7.817 -23.104,-7.237C-22.662,-6.94 -22.211,-6.667 -21.753,-6.407C-28.952,4.723 -27.97,19.058 -26.059,31.617C-24.936,38.999 -23.213,46.293 -20.896,53.391C-19.667,57.156 -18.349,61.186 -16.709,65.035C-19.479,63.984 -21.857,62.076 -23.948,59.72C-27.344,54.508 -29.881,48.76 -31.701,42.82C-36.188,28.182 -36.473,12.724 -36.453,-2.46C-36.429,-2.463 -36.405,-2.468 -36.381,-2.471C-35.734,-2.476 -35.084,-2.559 -34.421,-2.733C-33.512,-2.974 -33.78,-4.19 -34.529,-4.415C-36.193,-4.913 -37.957,-4.943 -39.628,-4.458C-40.289,-4.266 -40.419,-3.15 -39.73,-2.9C-39.099,-2.67 -38.449,-2.516 -37.797,-2.453C-38.056,12.327 -38.419,27.509 -34.524,41.88C-39.984,31.213 -44.442,19.976 -45.682,7.984C-45.411,7.942 -45.141,7.89 -44.873,7.823C-44.258,7.671 -44.201,6.844 -44.605,6.464C-46.119,5.042 -48.629,5.237 -49.953,6.817C-50.43,7.386 -49.978,8.121 -49.299,8.148C-48.601,8.176 -47.906,8.169 -47.215,8.122C-46.046,21.754 -41.297,34.591 -34.873,46.596C-32.701,50.655 -29.795,56.519 -26.01,61.185C-25.672,61.701 -25.334,62.218 -24.979,62.724C-23.292,65.131 -21.399,67.401 -19.337,69.498C-20.757,70.12 -22.192,70.696 -23.642,71.211C-24.714,70.888 -25.766,70.493 -26.785,70.025C-32.772,67.28 -36.742,62.166 -39.892,56.546C-46.719,44.362 -49.794,30.431 -48.595,16.527C-48.391,16.493 -48.189,16.444 -47.993,16.373C-47.892,16.336 -47.799,16.268 -47.715,16.188C-47.689,16.186 -47.659,16.186 -47.634,16.184C-46.848,16.103 -46.491,14.921 -47.308,14.578C-47.705,14.411 -48.109,14.277 -48.518,14.164C-48.729,14.065 -48.958,14.011 -49.193,14.007C-50.011,13.842 -50.845,13.773 -51.698,13.831C-52.463,13.883 -52.657,14.769 -52.19,15.273C-51.645,15.864 -50.905,16.277 -50.117,16.465C-51.502,31.407 -48.58,46.829 -40.889,59.797C-37.656,65.246 -33.335,69.845 -27.555,72.439C-29.895,73.077 -32.252,73.536 -34.606,73.769C-41.283,71.493 -45.773,66.053 -49.537,59.996C-58.362,45.795 -65.615,29.443 -64.242,12.405C-63.777,12.394 -63.32,12.334 -62.902,12.24C-62.828,12.244 -62.755,12.251 -62.681,12.254C-62.491,12.261 -62.337,12.178 -62.222,12.056C-62.215,12.054 -62.206,12.052 -62.199,12.049C-61.535,11.82 -61.554,10.958 -62.105,10.625C-63.538,9.762 -65.275,9.628 -66.832,10.227C-67.536,10.499 -67.463,11.495 -66.739,11.678C-66.704,11.686 -66.669,11.692 -66.634,11.701C-66.385,11.93 -66.086,12.098 -65.748,12.209C-67.489,30.78 -59.937,49.559 -49.544,64.651C-46.961,68.401 -43.885,71.605 -40.23,73.87C-45.52,73.515 -50.7,71.811 -55.518,68.201C-66.502,59.97 -71.496,46.552 -73.854,33.475C-73.082,33.242 -72.38,32.793 -71.89,32.103C-71.619,31.722 -71.604,31.056 -72.134,30.851C-73.663,30.256 -75.309,30.578 -76.514,31.695C-76.521,31.702 -76.522,31.711 -76.529,31.718C-77.241,31.905 -77.612,32.945 -76.789,33.308" style="fill:rgb(247,168,76);fill-rule:nonzero;"/>
        </g>
        <g transform="matrix(1,0,0,1,118.679,410.678)">
            <path d="M0,171.516C10.852,167.443 19.273,157.82 26.336,148.977C33.475,140.037 39.489,130.2 44.302,119.825C54.595,97.636 59.572,73.418 59.979,49.008C60.18,36.972 59.271,24.962 57.49,13.07C55.057,12.97 51.684,10.245 50.38,9.113C48.798,7.738 45.961,4.162 46.571,1.664C46.605,1.122 46.889,0.591 47.418,0.294C47.713,0.064 48.048,-0.011 48.377,0.043C52.073,1.819 64.572,-0.717 67.232,-2.528C67.446,-2.673 67.775,-2.421 67.978,-2.239C68.201,-2.145 68.386,-1.965 68.447,-1.715C69.608,3.067 65.893,10.294 61.287,12.755C68.193,60.235 60.749,110.712 30.304,149.134C22.528,158.947 13.187,169.456 1.052,173.687C-0.39,174.189 -1.465,172.066 0,171.516" style="fill:rgb(24,32,71);fill-rule:nonzero;"/>
        </g>
    </g>
</svg>
