<?xml version="1.0" encoding="UTF-8" standalone="no"?>
<!DOCTYPE svg PUBLIC "-//W3C//DTD SVG 1.1//EN" "http://www.w3.org/Graphics/SVG/1.1/DTD/svg11.dtd">
<svg width="100%" height="100%" viewBox="0 0 706 398" version="1.1" xmlns="http://www.w3.org/2000/svg" xmlns:xlink="http://www.w3.org/1999/xlink" xml:space="preserve" xmlns:serif="http://www.serif.com/" style="fill-rule:evenodd;clip-rule:evenodd;stroke-linejoin:round;stroke-miterlimit:2;">
    <g transform="matrix(1,0,0,1,-76.6563,-137.344)">
        <g transform="matrix(1,0,0,1,387.343,537.876)">
            <path d="M0,-207.161C5.209,-178.974 4.854,-150.031 -1.286,-122.015C-7.881,-91.92 -21.082,-63.403 -39.697,-38.857C-50.547,-24.549 -63.144,-11.615 -77.163,-0.397C-78.732,0.859 -80.82,-1.481 -79.241,-2.743C-31.618,-40.805 -2.188,-98.175 1.254,-158.988C2.159,-174.978 1.332,-191.102 -1.326,-206.897C-1.471,-207.753 -0.159,-208.02 0,-207.161" style="fill:rgb(24,32,71);fill-rule:nonzero;"/>
        </g>
        <g transform="matrix(1,0,0,1,384.264,333.242)">
            <path d="M0,-60.258C0,-60.258 28.051,-27.78 2.385,0C-24.579,-24.911 0,-60.258 0,-60.258" style="fill:rgb(24,32,71);fill-rule:nonzero;"/>
        </g>
        <g transform="matrix(1,0,0,1,437.742,351.522)">
            <path d="M0,-40.403C0,-40.403 -11.545,0.929 -48.885,-5.09C-43.043,-41.332 0,-40.403 0,-40.403" style="fill:rgb(24,32,71);fill-rule:nonzero;"/>
        </g>
        <g transform="matrix(1,0,0,1,439.063,382.284)">
            <path d="M0,-40.403C0,-40.403 -11.545,0.929 -48.885,-5.09C-43.043,-41.332 0,-40.403 0,-40.403" style="fill:rgb(24,32,71);fill-rule:nonzero;"/>
        </g>
        <g transform="matrix(1,0,0,1,435.509,414.858)">
            <path d="M0,-40.403C0,-40.403 -11.545,0.929 -48.885,-5.09C-43.043,-41.332 0,-40.403 0,-40.403" style="fill:rgb(24,32,71);fill-rule:nonzero;"/>
        </g>
        <g transform="matrix(1,0,0,1,430.649,445.519)">
            <path d="M0,-34.029C0,-34.029 -16.106,5.748 -52.536,-4.42C-42.668,-39.777 0,-34.029 0,-34.029" style="fill:rgb(24,32,71);fill-rule:nonzero;"/>
        </g>
        <g transform="matrix(1,0,0,1,419.21,476.981)">
            <path d="M0,-24.822C0,-24.822 -21.894,12.087 -56.385,-3.432C-41.321,-36.909 0,-24.822 0,-24.822" style="fill:rgb(24,32,71);fill-rule:nonzero;"/>
        </g>
        <g transform="matrix(1,0,0,1,401.744,505.269)">
            <path d="M0,-12.643C0,-12.643 -28.37,19.555 -59.377,-2.102C-38.356,-32.198 0,-12.643 0,-12.643" style="fill:rgb(24,32,71);fill-rule:nonzero;"/>
        </g>
        <g transform="matrix(1,0,0,1,334.587,349.959)">
            <path d="M0,-31.001C0,-31.001 18.104,7.907 53.972,-4.096C42.321,-38.908 0,-31.001 0,-31.001" style="fill:rgb(24,32,71);fill-rule:nonzero;"/>
        </g>
        <g transform="matrix(1,0,0,1,335.862,380.975)">
            <path d="M0,-31.001C0,-31.001 18.104,7.907 53.971,-4.096C42.32,-38.908 0,-31.001 0,-31.001" style="fill:rgb(24,32,71);fill-rule:nonzero;"/>
        </g>
        <g transform="matrix(1,0,0,1,336.114,413.362)">
            <path d="M0,-36.75C0,-36.75 14.222,3.739 51.088,-4.707C42.891,-40.489 0,-36.75 0,-36.75" style="fill:rgb(24,32,71);fill-rule:nonzero;"/>
        </g>
        <g transform="matrix(1,0,0,1,328.681,445.068)">
            <path d="M0,-40.865C0,-40.865 11.194,0.564 48.584,-5.139C43.049,-41.429 0,-40.865 0,-40.865" style="fill:rgb(24,32,71);fill-rule:nonzero;"/>
        </g>
        <g transform="matrix(1,0,0,1,319.6,473.959)">
            <path d="M0,-42.52C0,-42.52 5.81,0 43.621,-0.879C42.769,-37.579 0,-42.52 0,-42.52" style="fill:rgb(24,32,71);fill-rule:nonzero;"/>
        </g>
        <g transform="matrix(1,0,0,1,307.074,502.164)">
            <path d="M0,-47.626C0,-47.626 -0.533,-4.716 36.994,0C41.57,-36.424 0,-47.626 0,-47.626" style="fill:rgb(24,32,71);fill-rule:nonzero;"/>
        </g>
        <g transform="matrix(1,0,0,1,130.232,538.044)">
            <path d="M0,-221.232C13.324,-195.852 21.558,-168.103 23.992,-139.526C26.607,-108.829 22.446,-77.681 11.938,-48.722C5.812,-31.843 -2.388,-15.757 -12.455,-0.89C-13.582,0.774 -16.27,-0.842 -15.136,-2.515C19.076,-52.976 30.191,-116.489 15.467,-175.592C11.595,-191.132 6.029,-206.289 -1.188,-220.587C-1.579,-221.362 -0.406,-222.006 0,-221.232" style="fill:rgb(36,46,107);fill-rule:nonzero;"/>
        </g>
        <g transform="matrix(1,0,0,1,110.192,319.431)">
            <path d="M0,-56.848C0,-56.848 36.411,-34.136 20.126,0C-13.006,-15.806 0,-56.848 0,-56.848" style="fill:rgb(36,46,107);fill-rule:nonzero;"/>
        </g>
        <g transform="matrix(1,0,0,1,172.565,331.374)">
            <path d="M0,-48.208C0,-48.208 1.216,-5.312 -36.231,0C-41.387,-36.346 0,-48.208 0,-48.208" style="fill:rgb(36,46,107);fill-rule:nonzero;"/>
        </g>
        <g transform="matrix(1,0,0,1,182.939,360.365)">
            <path d="M0,-48.208C0,-48.208 1.216,-5.312 -36.23,0C-41.386,-36.346 0,-48.208 0,-48.208" style="fill:rgb(36,46,107);fill-rule:nonzero;"/>
        </g>
        <g transform="matrix(1,0,0,1,189.193,392.53)">
            <path d="M0,-48.208C0,-48.208 1.216,-5.311 -36.231,0C-41.387,-36.345 0,-48.208 0,-48.208" style="fill:rgb(36,46,107);fill-rule:nonzero;"/>
        </g>
        <g transform="matrix(1,0,0,1,195.521,424.977)">
            <path d="M0,-43.843C0,-43.843 -3.602,-1.08 -41.407,0C-42.455,-36.695 0,-43.843 0,-43.843" style="fill:rgb(36,46,107);fill-rule:nonzero;"/>
        </g>
        <g transform="matrix(1,0,0,1,196.641,465.104)">
            <path d="M0,-41.738C0,-41.738 -9.978,0 -47.519,-4.606C-43.047,-41.043 0,-41.738 0,-41.738" style="fill:rgb(36,46,107);fill-rule:nonzero;"/>
        </g>
        <g transform="matrix(1,0,0,1,191.946,499.034)">
            <path d="M0,-31.842C0,-31.842 -17.56,7.315 -53.59,-4.187C-42.427,-39.157 0,-31.842 0,-31.842" style="fill:rgb(36,46,107);fill-rule:nonzero;"/>
        </g>
        <g transform="matrix(1,0,0,1,76.3615,332.921)">
            <path d="M0,-11.712C0,-11.712 28.816,20.088 59.519,-2.001C38.079,-31.8 0,-11.712 0,-11.712" style="fill:rgb(36,46,107);fill-rule:nonzero;"/>
        </g>
        <g transform="matrix(1,0,0,1,86.7658,362.166)">
            <path d="M0,-11.711C0,-11.711 28.817,20.088 59.519,-2C38.08,-31.799 0,-11.711 0,-11.711" style="fill:rgb(36,46,107);fill-rule:nonzero;"/>
        </g>
        <g transform="matrix(1,0,0,1,94.8976,394.006)">
            <path d="M0,-18.183C0,-18.183 25.575,16.276 58.286,-2.71C39.857,-34.459 0,-18.183 0,-18.183" style="fill:rgb(36,46,107);fill-rule:nonzero;"/>
        </g>
        <g transform="matrix(1,0,0,1,95.9699,427.34)">
            <path d="M0,-22.962C0,-22.962 22.964,13.291 56.986,-3.232C40.95,-36.253 0,-22.962 0,-22.962" style="fill:rgb(36,46,107);fill-rule:nonzero;"/>
        </g>
        <g transform="matrix(1,0,0,1,95.3644,464.023)">
            <path d="M0,-30.941C0,-30.941 18.144,7.949 53.998,-4.09C42.313,-38.89 0,-30.941 0,-30.941" style="fill:rgb(36,46,107);fill-rule:nonzero;"/>
        </g>
        <g transform="matrix(1,0,0,1,90.2433,498.385)">
            <path d="M0,-39.53C0,-39.53 12.2,1.613 49.439,-5C43.022,-41.143 0,-39.53 0,-39.53" style="fill:rgb(36,46,107);fill-rule:nonzero;"/>
        </g>
        <g transform="matrix(1,0,0,1,646.832,537.124)">
            <path d="M0,-188.984C25.527,-175.945 48.265,-158.033 66.743,-136.099C86.594,-112.537 101.169,-84.697 109.297,-54.983C114.034,-37.663 116.62,-19.794 116.977,-1.842C117.017,0.167 113.889,0.398 113.85,-1.623C112.673,-62.576 85.1,-120.862 38.968,-160.635C26.838,-171.093 13.547,-180.258 -0.599,-187.772C-1.365,-188.179 -0.778,-189.382 0,-188.984" style="fill:rgb(24,32,71);fill-rule:nonzero;"/>
        </g>
        <g transform="matrix(1,0,0,1,599.173,353.977)">
            <path d="M0,-38.561C0,-38.561 42.843,-41.024 49.241,-3.747C13.061,2.463 0,-38.561 0,-38.561" style="fill:rgb(24,32,71);fill-rule:nonzero;"/>
        </g>
        <g transform="matrix(1,0,0,1,661.991,356.512)">
            <path d="M0,-60.279C0,-60.279 25.747,-25.946 -1.771,0C-26.955,-26.709 0,-60.279 0,-60.279" style="fill:rgb(24,32,71);fill-rule:nonzero;"/>
        </g>
        <g transform="matrix(1,0,0,1,687.192,374.202)">
            <path d="M0,-60.279C0,-60.279 25.747,-25.946 -1.771,0C-26.955,-26.709 0,-60.279 0,-60.279" style="fill:rgb(24,32,71);fill-rule:nonzero;"/>
        </g>
        <g transform="matrix(1,0,0,1,710.861,396.864)">
            <path d="M0,-60.279C0,-60.279 25.746,-25.946 -1.771,0C-26.956,-26.709 0,-60.279 0,-60.279" style="fill:rgb(24,32,71);fill-rule:nonzero;"/>
        </g>
        <g transform="matrix(1,0,0,1,737.272,422.699)">
            <path d="M0,-59.701C0,-59.701 21.735,-22.699 -8.519,0C-30.549,-29.365 0,-59.701 0,-59.701" style="fill:rgb(24,32,71);fill-rule:nonzero;"/>
        </g>
        <g transform="matrix(1,0,0,1,762.557,454.588)">
            <path d="M0,-57.746C0,-57.746 15.936,-17.9 -17.382,0C-34.756,-32.338 0,-57.746 0,-57.746" style="fill:rgb(24,32,71);fill-rule:nonzero;"/>
        </g>
        <g transform="matrix(1,0,0,1,784.011,488.855)">
            <path d="M0,-53.511C0,-53.511 8.256,-11.399 -27.808,0C-38.871,-35.002 0,-53.511 0,-53.511" style="fill:rgb(24,32,71);fill-rule:nonzero;"/>
        </g>
        <g transform="matrix(1,0,0,1,605.373,353.782)">
            <path d="M0,29.036C0,29.036 41.885,38.379 54.213,2.622C19.509,-9.343 0,29.036 0,29.036" style="fill:rgb(24,32,71);fill-rule:nonzero;"/>
        </g>
        <g transform="matrix(1,0,0,1,630.747,371.661)">
            <path d="M0,29.038C0,29.038 41.885,38.38 54.213,2.623C19.509,-9.342 0,29.038 0,29.038" style="fill:rgb(24,32,71);fill-rule:nonzero;"/>
        </g>
        <g transform="matrix(1,0,0,1,652.028,393.817)">
            <path d="M0,22.908C0,22.908 40.772,36.293 56.531,1.91C23.16,-13.385 0,22.908 0,22.908" style="fill:rgb(24,32,71);fill-rule:nonzero;"/>
        </g>
        <g transform="matrix(1,0,0,1,669.381,421.298)">
            <path d="M0,18.129C0,18.129 39.675,34.485 57.927,1.359C25.774,-16.356 0,18.129 0,18.129" style="fill:rgb(24,32,71);fill-rule:nonzero;"/>
        </g>
        <g transform="matrix(1,0,0,1,685.451,453.602)">
            <path d="M0,9.617C0,9.617 37.259,30.909 59.595,0.387C29.97,-21.292 0,9.617 0,9.617" style="fill:rgb(24,32,71);fill-rule:nonzero;"/>
        </g>
        <g transform="matrix(1,0,0,1,696.14,487.641)">
            <path d="M0,-0.418C0,-0.418 33.706,26.144 60.304,-0.746C34.206,-26.562 0,-0.418 0,-0.418" style="fill:rgb(24,32,71);fill-rule:nonzero;"/>
        </g>
    </g>
</svg>
