<?xml version="1.0" encoding="UTF-8" standalone="no"?>
<!DOCTYPE svg PUBLIC "-//W3C//DTD SVG 1.1//EN" "http://www.w3.org/Graphics/SVG/1.1/DTD/svg11.dtd">
<svg width="100%" height="100%" viewBox="0 0 743 476" version="1.1" xmlns="http://www.w3.org/2000/svg" xmlns:xlink="http://www.w3.org/1999/xlink" xml:space="preserve" xmlns:serif="http://www.serif.com/" style="fill-rule:evenodd;clip-rule:evenodd;stroke-linejoin:round;stroke-miterlimit:2;">
    <g id="Artboard1" transform="matrix(0.986545,0,0,1,-3.01414,4.63939)">
        <rect x="3.055" y="-4.639" width="753.113" height="475.081" style="fill:none;"/>
        <clipPath id="_clip1">
            <rect x="3.055" y="-4.639" width="753.113" height="475.081"/>
        </clipPath>
        <g clip-path="url(#_clip1)">
            <g transform="matrix(1.01364,0,0,1,0.0108885,-29.6395)">
                <clipPath id="_clip2">
                    <rect x="0.003" y="30" width="749.237" height="470.254"/>
                </clipPath>
                <g clip-path="url(#_clip2)">
                    <g transform="matrix(1,0,0,1,363.319,287.738)">
                        <path d="M0,218.983C-14.68,202.942 -23.782,185.827 -28.826,168.503C-28.111,169.019 -27.367,169.495 -26.676,170.036C-17.148,177.535 -8.757,178.816 -9.023,178.567C-21.022,167.228 -25.635,162.161 -32.624,150.761C-33.275,146.108 -33.668,141.462 -33.841,136.839C-32.461,138.053 -31.163,139.372 -29.854,140.58C-27.023,143.186 -24.002,145.699 -20.251,146.825C-19.975,146.909 -19.687,146.601 -19.79,146.331C-23.128,137.516 -28.925,129.859 -33.634,121.717C-31.794,92.883 -22.138,65.686 -11.962,44.344C-10.125,47.681 -7.704,50.731 -4.815,53.005C-4.565,53.209 -4.147,53.069 -4.159,52.709C-4.406,46.139 -5.379,39.618 -5.892,33.065C-5.906,32.854 -5.922,32.65 -5.937,32.44C4.579,12.794 14.112,0.394 14.404,0.008L14.412,0C16.285,37.864 26.638,71.524 33.355,97.287C29.68,107.108 24.281,116.273 20.671,126.162C20.584,126.383 20.829,126.681 21.062,126.641C24.811,126.076 28.097,123.913 31.018,121.613C33.352,119.779 35.522,117.748 37.628,115.648C38.051,117.928 38.414,120.108 38.673,122.182C42.004,148.774 40.533,181.575 0,218.983" style="fill:rgb(19,26,53);fill-rule:nonzero;"/>
                    </g>
                    <g transform="matrix(1,0,0,1,95.2216,368.65)">
                        <path d="M0,136.841C8.604,126.223 13.669,115.142 16.18,104.083C15.751,104.433 15.302,104.76 14.888,105.125C9.194,110.19 3.978,111.311 4.136,111.144C11.235,103.577 13.938,100.224 17.893,92.808C18.126,89.864 18.197,86.935 18.131,84.028C17.311,84.842 16.546,85.718 15.77,86.526C14.093,88.267 12.292,89.958 9.981,90.806C9.812,90.869 9.619,90.687 9.674,90.514C11.436,84.858 14.783,79.835 17.43,74.549C15.187,56.528 8.103,39.83 0.913,26.825C-0.113,28.987 -1.518,30.993 -3.243,32.529C-3.393,32.666 -3.66,32.594 -3.666,32.368C-3.76,28.237 -3.395,24.108 -3.32,19.978C-3.319,19.845 -3.317,19.717 -3.316,19.584C-10.655,7.655 -17.104,0.236 -17.302,0.005L-17.307,0C-17.053,23.825 -22.277,45.334 -25.52,61.751C-22.843,67.773 -19.11,73.32 -16.472,79.387C-16.409,79.523 -16.552,79.719 -16.699,79.703C-19.072,79.489 -21.215,78.256 -23.135,76.924C-24.668,75.862 -26.106,74.669 -27.507,73.431C-27.686,74.877 -27.832,76.259 -27.916,77.57C-29.002,94.379 -26.842,114.902 0,136.841" style="fill:rgb(19,26,53);fill-rule:nonzero;"/>
                    </g>
                    <g transform="matrix(1,0,0,1,611.344,378.306)">
                        <path d="M0,131.449C-6.541,119.45 -9.517,107.635 -9.985,96.304C-9.627,96.726 -9.244,97.13 -8.903,97.563C-4.22,103.575 0.707,105.621 0.582,105.428C-5.031,96.702 -7.082,92.915 -9.63,84.906C-9.326,81.969 -8.866,79.074 -8.274,76.227C-7.615,77.177 -7.022,78.177 -6.405,79.111C-5.071,81.128 -3.605,83.116 -1.486,84.368C-1.33,84.462 -1.109,84.317 -1.131,84.136C-1.84,78.255 -4.224,72.709 -5.87,67.032C-0.404,49.715 9.585,34.574 19.01,23.085C19.628,25.397 20.646,27.623 22.065,29.446C22.187,29.608 22.464,29.586 22.511,29.364C23.35,25.318 23.738,21.192 24.413,17.116C24.436,16.985 24.457,16.859 24.479,16.728C33.856,6.325 41.541,0.195 41.777,0.003L41.783,0C37.222,23.386 38.469,45.484 38.686,62.217C34.964,67.655 30.289,72.434 26.596,77.925C26.51,78.047 26.614,78.265 26.763,78.276C29.135,78.496 31.466,77.671 33.595,76.708C35.296,75.94 36.926,75.028 38.527,74.063C38.441,75.518 38.335,76.904 38.18,78.209C36.206,94.936 30.368,114.729 0,131.449" style="fill:rgb(19,26,53);fill-rule:nonzero;"/>
                    </g>
                    <g transform="matrix(0,-369,-369,0,232.418,557.427)">
                        <path d="M0.615,0.119C0.607,0.113 0.6,0.107 0.592,0.102C0.569,0.086 0.545,0.066 0.516,0.064L0.515,0.065C0.513,0.075 0.518,0.086 0.523,0.095C0.527,0.102 0.532,0.11 0.538,0.117C0.457,0.118 0.375,0.125 0.297,0.144C0.285,0.14 0.274,0.136 0.263,0.13C0.246,0.122 0.23,0.111 0.216,0.099C0.205,0.089 0.196,0.076 0.182,0.071C0.181,0.071 0.18,0.072 0.18,0.072C0.181,0.107 0.196,0.14 0.212,0.171C0.193,0.178 0.174,0.187 0.156,0.196L0.156,-0.179C0.161,-0.181 0.167,-0.184 0.173,-0.187C0.192,-0.188 0.222,-0.186 0.26,-0.182C0.26,-0.168 0.262,-0.152 0.267,-0.139C0.267,-0.138 0.268,-0.137 0.269,-0.138C0.288,-0.146 0.302,-0.161 0.318,-0.173C0.325,-0.172 0.332,-0.171 0.34,-0.169C0.322,-0.154 0.306,-0.137 0.301,-0.115C0.301,-0.114 0.302,-0.113 0.303,-0.113C0.342,-0.12 0.379,-0.14 0.417,-0.151C0.534,-0.121 0.677,-0.066 0.816,0.026C0.799,0.033 0.781,0.042 0.771,0.057C0.771,0.058 0.771,0.059 0.772,0.059C0.806,0.072 0.844,0.07 0.88,0.072C0.921,0.103 0.961,0.138 1,0.177C1,0.177 0.824,0.128 0.615,0.119Z" style="fill:url(#_Linear3);fill-rule:nonzero;"/>
                    </g>
                    <g transform="matrix(1,0,0,1,211.03,528.295)">
                        <path d="M0,-222.964C-7.125,-250.727 -16.372,-277.955 -27.199,-304.485C-27.882,-306.158 -30.547,-305.316 -29.893,-303.595C5.941,-209.378 20.499,-106.226 11.556,-5.794C9.035,22.519 4.361,50.432 -1.488,78.231C-2.27,81.942 3.387,83.194 4.256,79.509C27.496,-19.095 25.136,-125.024 0,-222.964" style="fill:rgb(84,118,239);fill-rule:nonzero;"/>
                    </g>
                    <g transform="matrix(-120.752,-348.683,-348.683,120.752,751.233,412.201)">
                        <path d="M0.615,0.023C0.607,0.017 0.6,0.011 0.592,0.006C0.569,-0.01 0.545,-0.03 0.516,-0.032L0.515,-0.031C0.513,-0.021 0.518,-0.01 0.523,-0.001C0.527,0.006 0.532,0.014 0.538,0.021C0.457,0.022 0.375,0.029 0.297,0.048C0.285,0.045 0.274,0.04 0.263,0.034C0.246,0.026 0.24,0.02 0.226,0.008C0.215,-0.002 0.19,-0.019 0.19,-0.018C0.19,0.016 0.196,0.044 0.212,0.075C0.188,0.084 0.164,0.095 0.141,0.108C0.087,0.076 0.051,0.033 0.029,-0.006L0.575,-0.196C0.653,-0.165 0.735,-0.124 0.816,-0.07C0.799,-0.063 0.781,-0.054 0.771,-0.039C0.771,-0.038 0.771,-0.037 0.772,-0.037C0.806,-0.024 0.844,-0.026 0.88,-0.024C0.921,0.007 0.961,0.042 1,0.081C1,0.081 0.824,0.032 0.615,0.023Z" style="fill:url(#_Linear4);fill-rule:nonzero;"/>
                    </g>
                    <g transform="matrix(1,0,0,1,681.992,388.766)">
                        <path d="M0,-219.372C-15.818,-243.275 -33.467,-265.977 -52.379,-287.504C-53.571,-288.861 -55.814,-287.193 -54.633,-285.781C10.06,-208.478 57.571,-115.769 81.985,-17.941C88.869,9.638 93.588,37.545 97.156,65.727C97.633,69.489 103.387,68.821 103.002,65.054C92.696,-35.725 55.802,-135.049 0,-219.372" style="fill:rgb(84,118,239);fill-rule:nonzero;"/>
                    </g>
                </g>
            </g>
        </g>
    </g>
    <defs>
        <linearGradient id="_Linear3" x1="0" y1="0" x2="1" y2="0" gradientUnits="userSpaceOnUse" gradientTransform="matrix(1,0,0,1,0,0.00860586)"><stop offset="0" style="stop-color:rgb(53,68,122);stop-opacity:1"/><stop offset="1" style="stop-color:rgb(73,97,214);stop-opacity:1"/></linearGradient>
        <linearGradient id="_Linear4" x1="0" y1="0" x2="1" y2="0" gradientUnits="userSpaceOnUse" gradientTransform="matrix(1,0,0,1,0,-0.0873698)"><stop offset="0" style="stop-color:rgb(53,68,122);stop-opacity:1"/><stop offset="1" style="stop-color:rgb(73,97,214);stop-opacity:1"/></linearGradient>
    </defs>
</svg>
