<svg width="589" height="595" viewBox="0 0 589 595" fill="none" xmlns="http://www.w3.org/2000/svg">
<g id="Frame" clip-path="url(#clip0)">
<path id="Vector" d="M321.4 421C437.656 421 531.9 326.756 531.9 210.5C531.9 94.2441 437.656 0 321.4 0C205.144 0 110.9 94.2441 110.9 210.5C110.9 326.756 205.144 421 321.4 421Z" fill="#DADAE5"/>
<path id="Vector_2" d="M321.4 416C427.715 416 513.9 329.815 513.9 223.5C513.9 117.185 427.715 31 321.4 31C215.085 31 128.9 117.185 128.9 223.5C128.9 329.815 215.085 416 321.4 416Z" fill="#1A0029"/>
<path id="Vector_3" d="M329.4 415.6C426.878 415.6 505.9 335.235 505.9 236.1C505.9 136.965 426.878 56.6 329.4 56.6C231.922 56.6 152.9 136.965 152.9 236.1C152.9 335.235 231.922 415.6 329.4 415.6Z" fill="#3B163A"/>
<path id="Vector_4" d="M329.9 402.6C398.383 402.6 453.9 343.502 453.9 270.6C453.9 197.698 398.383 138.6 329.9 138.6C261.417 138.6 205.9 197.698 205.9 270.6C205.9 343.502 261.417 402.6 329.9 402.6Z" fill="#A56D8A"/>
<path id="Vector_5" d="M271.4 288C276.094 288 279.9 284.194 279.9 279.5C279.9 274.806 276.094 271 271.4 271C266.706 271 262.9 274.806 262.9 279.5C262.9 284.194 266.706 288 271.4 288Z" fill="#1A0029"/>
<path id="eye" d="M272.9 287C276.766 287 279.9 283.866 279.9 280C279.9 276.134 276.766 273 272.9 273C269.034 273 265.9 276.134 265.9 280C265.9 283.866 269.034 287 272.9 287Z" fill="#422C4F"/>
<path id="Vector_6" d="M383 290C387.363 290 390.9 286.418 390.9 282C390.9 277.582 387.363 274 383 274C378.637 274 375.1 277.582 375.1 282C375.1 286.418 378.637 290 383 290Z" fill="#1A0029"/>
<path id="eye_2" d="M381.9 290C385.766 290 388.9 286.866 388.9 283C388.9 279.134 385.766 276 381.9 276C378.034 276 374.9 279.134 374.9 283C374.9 286.866 378.034 290 381.9 290Z" fill="#422C4F"/>
<path id="Vector_7" d="M365.3 255.1L369.9 249.4L374.9 245.9L379.1 243L384 242L391.1 243.1L396.2 246.9L399.5 251.7L401 253.8L395.2 252.5L390.5 250.9L386.9 250.6L380.8 251.1L376 251.2L365.3 255.1Z" fill="#1A0029"/>
<path id="Vector_8" d="M246.9 255.5L251.5 249.9L256.5 246.3L260.7 243.4L265.6 242.4L272.7 243.5L277.8 247.3L281.2 252.1L282.6 254.2L276.8 252.9L272.1 251.3L268.5 251L262.4 251.5L257.7 251.7L246.9 255.5Z" fill="#1A0029"/>
<path id="Vector_9" d="M324 289.8L308.9 329L329.4 334.5L341.9 327L324 289.8Z" fill="#824D72"/>
<path id="Vector_10" d="M310.9 327.6H338.4L324.6 340.8L310.9 327.6Z" fill="#663466"/>
<path id="Vector_11" d="M347.6 346C342.9 358.6 334.5 367 324.8 367C315.2 367 306.7 358.6 302 346H308.1C312.1 353.8 318.1 358.8 324.8 358.8C331.5 358.8 337.5 353.8 341.5 346H347.6Z" fill="#DBDAE5"/>
<path id="Vector_12" d="M394.4 329.6C403.513 329.6 410.9 325.571 410.9 320.6C410.9 315.629 403.513 311.6 394.4 311.6C385.287 311.6 377.9 315.629 377.9 320.6C377.9 325.571 385.287 329.6 394.4 329.6Z" fill="#995574"/>
<path id="Vector_13" d="M264.9 329.6C274.841 329.6 282.9 325.571 282.9 320.6C282.9 315.629 274.841 311.6 264.9 311.6C254.959 311.6 246.9 315.629 246.9 320.6C246.9 325.571 254.959 329.6 264.9 329.6Z" fill="#995574"/>
<path id="Vector_14" d="M201.9 245.9L205.7 226.2L210.5 211.5L216.8 197.5H197.5L189.9 185.1L185.9 169V149.8V132L195.8 114.8L207.7 105.8L223.6 101.8H235.4L250.3 104.8L272.1 113.6L287 117.9L309.8 122.1L325.7 127.9H346.5H380.2H404.7L425.8 133.6L431.8 141L435.8 154.1C435.8 154.1 433.8 165.9 435.8 167.5C437.8 169.1 444.7 188.2 444.7 188.2L454.6 211.3L460.5 227.4L460.9 239.2V252L455.6 276.5L450.6 285L435.9 252.3L425.8 227.4L412.9 210.2L404 200.1L369.3 201.1C369.3 201.1 361.4 197.1 351.5 197.1C341.6 197.1 328.7 196.1 319.8 197.1C310.9 198.1 279.2 199.7 279.2 199.7C279.2 199.7 269.3 200.8 265.3 200.5C261.3 200.2 246.5 201.3 246.5 201.3C246.5 201.3 243.5 204.2 240.5 207.3C237.5 210.4 230.6 216.3 230.6 216.3C230.6 216.3 221.7 220.3 219.7 223.3C217.7 226.3 213.8 230 214.2 233.2C214.7 236.4 214.2 239.1 214.2 239.1V251.9L211.2 264.5L212.7 276.9C212.7 276.9 214.7 280.3 212.7 287C210.7 293.7 210.7 293.7 210.7 293.7L205.5 302C205.5 302 202.1 286.3 202.4 287C202.7 287.7 200.7 276.9 200.7 276.9C200.7 276.9 200.7 260.4 200.7 257.4C200.8 254.4 201.9 245.9 201.9 245.9Z" fill="#3F3249"/>
<path id="Vector_15" d="M242.5 202.2L219.9 238.5L214.5 257.5L210.1 282L207.8 265.5L210.7 252.9L211.8 230.2L221.9 216.6L242.5 202.2Z" fill="#3F3249"/>
<path id="Vector_16" d="M229.2 223.5L246.9 206.3L264 198.5L245.5 199.2L229.2 218.5" fill="#3F3249"/>
<path id="Vector_17" d="M376.9 198L400.2 201.7L420.1 219.2L425.4 227.7L402.8 197.6L376.9 198Z" fill="#3F3249"/>
<path id="Vector_18" d="M230.7 87.9L220.7 98.6L199.3 121.4L181.2 140.7L172.3 162.1L161.2 184.3L149 224.4L152 260L163.8 287.2L179.7 306.3L203.8 321.8L234.6 328L256.7 324.9L289.6 313L309.6 298L320.6 275.2L328.2 249.5L331.1 235.5L333.8 193.7L335.8 167.4L336.6 152L342 132.8L349.3 121.4L366.8 105.6L390.6 95H406.1L430.3 87.9L414.2 75.7L384.7 65.1L327.1 56L281.6 63.2L261.1 73L230.7 87.9Z" fill="url(#paint0_linear)"/>
<path id="Vector_19" d="M232.3 402.6L226.2 416L259.9 426L290.9 430.3H338.9L398.2 421L436.9 409.5L457.9 395.4L445 378.6L422.4 393.5L410.6 399.8L391.4 404.5L362.3 411L344.9 414.2L326.4 415.6L299.4 416L279.9 412.1L261 413.1L239.5 405.7L232.3 402.6Z" fill="#DBDAE5"/>
<path id="Vector_20" d="M226.2 416L218.8 421C218.8 421 196.7 428.1 194.3 430.3C191.9 432.5 168.3 437.5 168.3 437.5L138.9 448.6L110.9 464.4L97.4 479.7L89.9 497.6L80.9 536.6V562.4V585.4H571.9L574.9 504.6V491.9C574.9 491.9 570.9 481.6 563.9 476.6C556.9 471.6 535.9 458.6 535.9 458.6L513.9 449.8L486.1 437.5L475.4 430.3L460.9 421V409.9L457.9 402.6V395.3L415.1 416L388.9 422.5L347.9 426L327.9 430.3L302.4 426.8L271.4 427.6L252.5 423.7L226.2 416Z" fill="url(#paint1_linear)"/>
<path id="Vector_21" d="M574.9 491.9L584.9 507.5L588.9 525.5V550.1V571.5V585.3H571.9L573.9 495.5" fill="url(#paint2_linear)"/>
<path id="Vector_22" d="M332.9 482.5C342.841 482.5 350.9 474.441 350.9 464.5C350.9 454.559 342.841 446.5 332.9 446.5C322.959 446.5 314.9 454.559 314.9 464.5C314.9 474.441 322.959 482.5 332.9 482.5Z" fill="#DBDAE5"/>
<path id="Vector_23" d="M148.9 585.3V503.4L194.1 498.5H254.5L314.4 503.4H406.4L477.9 502.5L525.9 502.6L528.8 585.3H148.9Z" fill="#DBDAE5"/>
<path id="hand2" d="M68.9 590L28.2 370.5L103.2 356.7L147 569.4L148.9 579.7L69.7 594.3L68.9 590Z" fill="white"/>
<path id="hand1" d="M26.7 365.4L11 344.8L0 312.8L6.4 299.6L15.8 303.7L17.9 315.8L22.6 322.5L9.7 269.2L12.1 263L18.1 261.9C18.1 261.9 23.9 250.7 27.8 250C31.7 249.3 42.2 247.5 42.2 247.5C42.2 247.5 53.4 245.5 58.1 244.7C62.8 243.9 72 242.2 72 242.2L87.9 249.6L90.5 264.5L93.5 281.3L96 295.5L98.4 309.2L101.2 325.2L100.1 341.6L101.6 352.1L102.9 359.6L28 372.9L26.7 365.4Z" fill="#DBDAE5"/>
</g>
<defs>
<linearGradient id="paint0_linear" x1="199.002" y1="232.838" x2="491.7" y2="403.8" gradientUnits="userSpaceOnUse">
<stop stop-color="white" stop-opacity="0.28"/>
<stop offset="1" stop-opacity="0"/>
</linearGradient>
<linearGradient id="paint1_linear" x1="80.8949" y1="490.339" x2="574.895" y2="490.339" gradientUnits="userSpaceOnUse">
<stop stop-color="white"/>
<stop offset="1" stop-color="#F8F8F8"/>
</linearGradient>
<linearGradient id="paint2_linear" x1="571.93" y1="538.592" x2="588.895" y2="538.592" gradientUnits="userSpaceOnUse">
<stop stop-color="white"/>
<stop offset="1" stop-color="#F8F8F8"/>
</linearGradient>
<clipPath id="clip0">
<rect width="588.9" height="594.3" fill="white"/>
</clipPath>
</defs>
</svg>
